<svg xmlns="http://www.w3.org/2000/svg" width="75.596" height="75.566" viewBox="0 0 75.596 75.566">
  <g id="Group_130" data-name="Group 130" transform="translate(-1086 -1789)">
    <g id="Group_103" data-name="Group 103" transform="translate(-1167 -989)">
      <g id="Group_102" data-name="Group 102" transform="translate(2253 2778)">
        <g id="Group_100" data-name="Group 100" transform="translate(0 0)">
          <g id="Group_99" data-name="Group 99">
            <path id="Path_27" data-name="Path 27" d="M-59,78.724a4.078,4.078,0,0,0,2.7,1.114,3.788,3.788,0,0,0,2.7-1.114L-38.634,63.77a32.83,32.83,0,0,0,20.761,7.318A33.4,33.4,0,0,0,15.535,37.68,33.455,33.455,0,0,0-17.873,4.272,33.455,33.455,0,0,0-51.281,37.68a33.294,33.294,0,0,0,7.318,20.761L-58.917,73.395A3.77,3.77,0,0,0-59,78.724Zm41.124-15.272A25.834,25.834,0,0,1-43.724,37.68,25.9,25.9,0,0,1-17.873,11.829,25.9,25.9,0,0,1,7.978,37.68,25.834,25.834,0,0,1-17.873,63.452Z" transform="translate(60.061 -4.272)" fill="#f2772a"/>
          </g>
        </g>
        <g id="Group_101" data-name="Group 101" transform="translate(23.147 16.673)">
          <rect id="Rectangle_22" data-name="Rectangle 22" width="5.865" height="15.909" transform="translate(0 15.909)" fill="#f2772a"/>
          <rect id="Rectangle_23" data-name="Rectangle 23" width="5.865" height="24.853" transform="translate(9.531 6.965)" fill="#f2772a"/>
          <rect id="Rectangle_24" data-name="Rectangle 24" width="5.865" height="19.134" transform="translate(19.061 12.683)" fill="#f2772a"/>
          <rect id="Rectangle_25" data-name="Rectangle 25" width="5.865" height="31.817" transform="translate(28.592)" fill="#f2772a"/>
        </g>
      </g>
    </g>
  </g>
</svg>
