<svg xmlns="http://www.w3.org/2000/svg" width="97.395" height="78.732" viewBox="0 0 97.395 78.732">
  <g id="Group_129" data-name="Group 129" transform="translate(-820 -1786)">
    <g id="Layer_1" data-name="Layer 1" transform="translate(731.763 1626.696)">
      <path id="Path_17" data-name="Path 17" d="M122.57,189.718a33.952,33.952,0,0,1,49.876-20.4,32.439,32.439,0,0,1,3.332,2.222h0l-3.563,3.587,8.324.769,3.923.364-.453-4.587-.756-7.649-3.624,3.648h0a36.456,36.456,0,0,0-3.248-2.293,39.36,39.36,0,0,0-59.392,24.364,14.837,14.837,0,0,1,5.579-.029Z" transform="translate(-18.464)" fill="#f26b16"/>
      <path id="Path_18" data-name="Path 18" d="M203.983,294.891a33.679,33.679,0,0,1-8.678,14.866,34.039,34.039,0,0,1-41.144,5.332,31.808,31.808,0,0,1-3.339-2.226h0l3.238-3.254-7.641-.708-1.875-.175-1.824-.171h-.013l-.891-.083.377,3.822.833,8.413,3.951-3.976h0a39.356,39.356,0,0,0,62.574-21.8,14.623,14.623,0,0,1-2.673.243A14.851,14.851,0,0,1,203.983,294.891Z" transform="translate(-34.404 -87.064)" fill="#f26b16"/>
      <path id="Path_19" data-name="Path 19" d="M209.783,240.446a17.684,17.684,0,0,0,0-6.543l-3.9-.551a13.748,13.748,0,0,0-1.31-3.164l2.367-3.149a17.84,17.84,0,0,0-4.622-4.622l-3.149,2.367a13.9,13.9,0,0,0-3.163-1.318l-.559-3.893a17.391,17.391,0,0,0-3.26-.305,17.62,17.62,0,0,0-3.275.305l-.551,3.893a13.932,13.932,0,0,0-3.164,1.31l-3.149-2.359a17.829,17.829,0,0,0-4.622,4.622l2.359,3.149a13.783,13.783,0,0,0-1.317,3.164l-3.886.551a17.684,17.684,0,0,0,0,6.543l3.886.551a13.981,13.981,0,0,0,1.317,3.171l-2.359,3.149a18.008,18.008,0,0,0,4.615,4.615l3.156-2.36a13.947,13.947,0,0,0,3.164,1.31l.551,3.893a17.623,17.623,0,0,0,3.275.305,17.393,17.393,0,0,0,3.26-.305l.559-3.893a13.722,13.722,0,0,0,3.156-1.318l3.164,2.367a17.9,17.9,0,0,0,4.615-4.615l-2.367-3.156a13.749,13.749,0,0,0,1.31-3.164Zm-17.605,5.911a9.183,9.183,0,1,1,9.187-9.179A9.182,9.182,0,0,1,192.178,246.357Z" transform="translate(-55.248 -38.505)" fill="#f26b16"/>
      <path id="Path_20" data-name="Path 20" d="M216.582,257.269a4.307,4.307,0,1,0,4.307,4.307A4.311,4.311,0,0,0,216.582,257.269Z" transform="translate(-79.649 -62.906)" fill="#f26b16"/>
      <path id="Path_21" data-name="Path 21" d="M300.007,217.856a13.158,13.158,0,1,0,13.159,13.16A13.159,13.159,0,0,0,300.007,217.856Zm6.324,19.275a6.962,6.962,0,0,1-4.992,2.164,7.543,7.543,0,0,1-6.928-5.341h-1.676a.4.4,0,0,1-.4-.4v-1.361a.4.4,0,0,1,.4-.4h1.222c-.017-.262-.035-.524-.035-.768s.018-.506.035-.786h-1.222a.4.4,0,0,1-.4-.4v-1.361a.4.4,0,0,1,.4-.4h1.676a7.543,7.543,0,0,1,6.928-5.34,6.991,6.991,0,0,1,4.992,2.164.473.473,0,0,1,.1.3.436.436,0,0,1-.14.3l-1.518,1.4a.385.385,0,0,1-.541-.018,4.126,4.126,0,0,0-2.914-1.274,4.476,4.476,0,0,0-3.84,2.5h3.979a.4.4,0,0,1,.4.4v1.361a.4.4,0,0,1-.4.4H296.8a6.322,6.322,0,0,0-.053.785,5.753,5.753,0,0,0,.035.768h4.677a.4.4,0,0,1,.4.4v1.361a.394.394,0,0,1-.4.4h-3.979a4.464,4.464,0,0,0,3.84,2.5,4.137,4.137,0,0,0,2.914-1.257.385.385,0,0,1,.541-.018l1.536,1.344a.43.43,0,0,1,.14.3A.421.421,0,0,1,306.331,237.131Z" transform="translate(-127.535 -37.598)" fill="#f26b16"/>
      <path id="Path_22" data-name="Path 22" d="M101.393,247.877a13.158,13.158,0,1,0,13.16,13.16A13.159,13.159,0,0,0,101.393,247.877Zm5.9,19.275a6.961,6.961,0,0,1-4.991,2.164,7.544,7.544,0,0,1-6.928-5.341H93.694a.394.394,0,0,1-.4-.4v-1.361a.4.4,0,0,1,.4-.4h1.222c-.018-.262-.035-.524-.035-.768s.018-.506.035-.786H93.694a.4.4,0,0,1-.4-.4V258.5a.4.4,0,0,1,.4-.4h1.675a7.544,7.544,0,0,1,6.928-5.341,6.991,6.991,0,0,1,4.991,2.164.475.475,0,0,1,.1.3.435.435,0,0,1-.14.3l-1.518,1.4a.385.385,0,0,1-.541-.018,4.127,4.127,0,0,0-2.915-1.274,4.476,4.476,0,0,0-3.84,2.5h3.98a.4.4,0,0,1,.4.4v1.361a.4.4,0,0,1-.4.4H97.76a6.453,6.453,0,0,0-.052.785,5.818,5.818,0,0,0,.035.768h4.677a.4.4,0,0,1,.4.4v1.361a.4.4,0,0,1-.4.4H98.44a4.464,4.464,0,0,0,3.84,2.5,4.137,4.137,0,0,0,2.915-1.257.384.384,0,0,1,.541-.017l1.536,1.344a.43.43,0,0,1,.14.3A.422.422,0,0,1,107.289,267.152Z" transform="translate(0 -56.875)" fill="#f26b16"/>
    </g>
  </g>
</svg>
