<svg xmlns="http://www.w3.org/2000/svg" width="66.458" height="49.844" viewBox="0 0 66.458 49.844">
  <path id="envelope-solid" d="M65.2,80.459a.781.781,0,0,1,1.259.61v26.544a6.232,6.232,0,0,1-6.23,6.23h-54A6.232,6.232,0,0,1,0,107.613V81.082a.776.776,0,0,1,1.259-.61c2.908,2.259,6.763,5.127,20,14.745,2.739,2,7.36,6.2,11.968,6.179,4.634.039,9.346-4.257,11.981-6.179C58.45,85.6,62.292,82.717,65.2,80.459Zm-31.97,16.77c3.011.052,7.347-3.79,9.527-5.374,17.225-12.5,18.536-13.59,22.508-16.705A3.106,3.106,0,0,0,66.458,72.7V70.23A6.232,6.232,0,0,0,60.228,64h-54A6.232,6.232,0,0,0,0,70.23V72.7A3.125,3.125,0,0,0,1.194,75.15c3.972,3.1,5.283,4.206,22.508,16.705,2.181,1.584,6.516,5.426,9.527,5.374Z" transform="translate(0 -64)" fill="#f25e00"/>
</svg>
