<?xml version="1.0" encoding="utf-8"?>
<!-- Generator: Adobe Illustrator 23.0.6, SVG Export Plug-In . SVG Version: 6.00 Build 0)  -->
<svg version="1.1" id="Layer_1" xmlns="http://www.w3.org/2000/svg" xmlns:xlink="http://www.w3.org/1999/xlink" x="0px" y="0px"
	 viewBox="0 0 256 70" style="enable-background:new 0 0 256 70;" xml:space="preserve">
<style type="text/css">
	.st0{fill:#0D0D0D;}
	.st1{enable-background:new    ;}
	.st2{fill:#FFFFFF;}
	.st3{fill:url(#Path_1_1_);}
	.st4{fill:url(#Path_2_1_);}
	.st5{fill:url(#Path_3_1_);}
	.st6{fill:url(#Path_4_1_);}
</style>
<path id="Rectangle_4" class="st0" d="M35,0h186c19.3,0,35,15.7,35,35l0,0c0,19.3-15.7,35-35,35H35C15.7,70,0,54.3,0,35l0,0
	C0,15.7,15.7,0,35,0z"/>
<g id="Group_35" transform="translate(0 -1)">
	<g class="st1">
		<path class="st2" d="M85.9,53.2c-1.1,0-2.2-0.2-3.1-0.6c-1-0.4-1.8-1-2.6-1.7c-0.7-0.7-1.3-1.6-1.7-2.5c-0.4-1-0.6-2-0.6-3.1
			c0-1.1,0.2-2.1,0.6-3.1c0.4-1,1-1.8,1.7-2.5c0.7-0.7,1.6-1.3,2.6-1.7c1-0.4,2-0.6,3.1-0.6c0.7,0,1.4,0.1,2,0.2
			c0.6,0.1,1.2,0.4,1.8,0.7c0.2,0.1,0.4,0.3,0.5,0.5c0.1,0.2,0.2,0.4,0.2,0.6c0,0.4-0.1,0.7-0.4,0.9c-0.2,0.3-0.5,0.4-0.9,0.4
			c-0.1,0-0.2,0-0.4,0s-0.2-0.1-0.4-0.1c-0.4-0.2-0.8-0.3-1.2-0.4S86.4,40,85.9,40c-1,0-1.8,0.2-2.6,0.7c-0.8,0.5-1.4,1.1-1.9,1.9
			c-0.5,0.8-0.7,1.7-0.7,2.7c0,1,0.2,1.8,0.7,2.6s1.1,1.4,1.9,1.9c0.8,0.5,1.7,0.7,2.6,0.7c0.4,0,0.9,0,1.5-0.1
			c0.5-0.1,1-0.2,1.3-0.4l-0.2,0.7V47l0.4,0.3h-2.4c-0.4,0-0.7-0.1-1-0.4c-0.3-0.2-0.4-0.6-0.4-0.9c0-0.4,0.1-0.7,0.4-0.9
			c0.3-0.2,0.6-0.4,1-0.4H90c0.4,0,0.7,0.1,0.9,0.4c0.2,0.3,0.4,0.6,0.4,1v4.7c0,0.3-0.1,0.5-0.2,0.7c-0.1,0.2-0.3,0.3-0.5,0.5
			c-0.7,0.4-1.4,0.7-2.2,1C87.6,53.1,86.8,53.2,85.9,53.2z"/>
		<path class="st2" d="M108.1,45.3c0,1.1-0.2,2.1-0.5,3.1c-0.4,1-0.9,1.8-1.6,2.5c-0.7,0.7-1.5,1.3-2.4,1.7c-0.9,0.4-1.9,0.6-3,0.6
			s-2.1-0.2-3-0.6c-0.9-0.4-1.7-1-2.4-1.7c-0.7-0.7-1.2-1.6-1.6-2.5c-0.4-1-0.6-2-0.6-3.1c0-1.1,0.2-2.1,0.6-3.1
			c0.4-1,0.9-1.8,1.6-2.5c0.7-0.7,1.5-1.3,2.4-1.7c0.9-0.4,1.9-0.6,3-0.6s2.1,0.2,3,0.6c0.9,0.4,1.7,1,2.4,1.7
			c0.7,0.7,1.2,1.6,1.6,2.5C107.9,43.2,108.1,44.2,108.1,45.3z M105.3,45.3c0-1-0.2-1.9-0.6-2.7c-0.4-0.8-0.9-1.4-1.6-1.9
			c-0.7-0.5-1.5-0.7-2.4-0.7c-0.9,0-1.7,0.2-2.4,0.7c-0.7,0.5-1.2,1.1-1.6,1.9c-0.4,0.8-0.6,1.7-0.6,2.7c0,1,0.2,1.9,0.6,2.7
			c0.4,0.8,0.9,1.4,1.6,1.9c0.7,0.5,1.5,0.7,2.4,0.7c0.9,0,1.7-0.2,2.4-0.7c0.7-0.5,1.2-1.1,1.6-1.9
			C105.1,47.2,105.3,46.3,105.3,45.3z"/>
		<path class="st2" d="M124.8,45.3c0,1.1-0.2,2.1-0.5,3.1c-0.4,1-0.9,1.8-1.6,2.5c-0.7,0.7-1.5,1.3-2.4,1.7c-0.9,0.4-1.9,0.6-3,0.6
			s-2.1-0.2-3-0.6c-0.9-0.4-1.7-1-2.4-1.7c-0.7-0.7-1.2-1.6-1.6-2.5c-0.4-1-0.6-2-0.6-3.1c0-1.1,0.2-2.1,0.6-3.1
			c0.4-1,0.9-1.8,1.6-2.5c0.7-0.7,1.5-1.3,2.4-1.7c0.9-0.4,1.9-0.6,3-0.6s2.1,0.2,3,0.6c0.9,0.4,1.7,1,2.4,1.7
			c0.7,0.7,1.2,1.6,1.6,2.5C124.6,43.2,124.8,44.2,124.8,45.3z M122,45.3c0-1-0.2-1.9-0.6-2.7c-0.4-0.8-0.9-1.4-1.6-1.9
			c-0.7-0.5-1.5-0.7-2.4-0.7c-0.9,0-1.7,0.2-2.4,0.7c-0.7,0.5-1.2,1.1-1.6,1.9c-0.4,0.8-0.6,1.7-0.6,2.7c0,1,0.2,1.9,0.6,2.7
			c0.4,0.8,0.9,1.4,1.6,1.9c0.7,0.5,1.5,0.7,2.4,0.7c0.9,0,1.7-0.2,2.4-0.7c0.7-0.5,1.2-1.1,1.6-1.9C121.8,47.2,122,46.3,122,45.3z"
			/>
		<path class="st2" d="M134.6,53.2c-1.1,0-2.2-0.2-3.1-0.6c-1-0.4-1.8-1-2.6-1.7c-0.7-0.7-1.3-1.6-1.7-2.5c-0.4-1-0.6-2-0.6-3.1
			c0-1.1,0.2-2.1,0.6-3.1c0.4-1,1-1.8,1.7-2.5c0.7-0.7,1.6-1.3,2.6-1.7c1-0.4,2-0.6,3.1-0.6c0.7,0,1.4,0.1,2,0.2
			c0.6,0.1,1.2,0.4,1.8,0.7c0.2,0.1,0.4,0.3,0.5,0.5c0.1,0.2,0.2,0.4,0.2,0.6c0,0.4-0.1,0.7-0.4,0.9s-0.5,0.4-0.9,0.4
			c-0.1,0-0.2,0-0.4,0s-0.2-0.1-0.4-0.1c-0.4-0.2-0.8-0.3-1.2-0.4c-0.4-0.1-0.8-0.1-1.3-0.1c-1,0-1.8,0.2-2.6,0.7
			c-0.8,0.5-1.4,1.1-1.9,1.9c-0.5,0.8-0.7,1.7-0.7,2.7c0,1,0.2,1.8,0.7,2.6s1.1,1.4,1.9,1.9c0.8,0.5,1.7,0.7,2.6,0.7
			c0.4,0,0.9,0,1.5-0.1s1-0.2,1.3-0.4l-0.2,0.7V47l0.4,0.3h-2.4c-0.4,0-0.7-0.1-1-0.4c-0.3-0.2-0.4-0.6-0.4-0.9
			c0-0.4,0.1-0.7,0.4-0.9c0.3-0.2,0.6-0.4,1-0.4h3.6c0.4,0,0.7,0.1,0.9,0.4c0.2,0.3,0.4,0.6,0.4,1v4.7c0,0.3-0.1,0.5-0.2,0.7
			c-0.1,0.2-0.3,0.3-0.5,0.5c-0.7,0.4-1.4,0.7-2.2,1C136.3,53.1,135.5,53.2,134.6,53.2z"/>
		<path class="st2" d="M151.2,50.4c0.4,0,0.7,0.1,1,0.4c0.3,0.2,0.4,0.6,0.4,0.9c0,0.4-0.1,0.7-0.4,0.9c-0.3,0.2-0.6,0.4-1,0.4H144
			c-0.4,0-0.7-0.1-1-0.4c-0.3-0.3-0.4-0.6-0.4-1V38.9c0-0.4,0.1-0.7,0.4-1c0.3-0.3,0.6-0.4,1-0.4c0.4,0,0.7,0.1,0.9,0.4
			c0.3,0.3,0.4,0.6,0.4,1v11.9l-0.5-0.4H151.2z"/>
		<path class="st2" d="M156.4,37.6h7.4c0.4,0,0.7,0.1,1,0.4s0.4,0.6,0.4,0.9c0,0.4-0.1,0.7-0.4,0.9s-0.6,0.3-1,0.3h-6.2l0.2-0.4V44
			l-0.2-0.2h5.1c0.4,0,0.7,0.1,1,0.4c0.3,0.2,0.4,0.6,0.4,0.9c0,0.4-0.1,0.7-0.4,0.9c-0.3,0.2-0.6,0.3-1,0.3h-5.1l0.1-0.2v4.4
			l-0.2-0.2h6.1c0.4,0,0.7,0.1,1,0.4c0.3,0.3,0.4,0.6,0.4,0.9c0,0.4-0.1,0.7-0.4,0.9c-0.3,0.2-0.6,0.4-1,0.4h-7.4
			c-0.4,0-0.7-0.1-1-0.4c-0.3-0.3-0.4-0.6-0.4-1V38.9c0-0.4,0.1-0.7,0.4-1C155.7,37.7,156,37.6,156.4,37.6z"/>
		<path class="st2" d="M180.1,37.6c0.8,0,1.5,0.2,2.1,0.7c0.7,0.4,1.2,1,1.6,1.8c0.4,0.7,0.6,1.6,0.6,2.5c0,0.9-0.2,1.7-0.6,2.5
			c-0.4,0.7-0.9,1.3-1.6,1.8c-0.7,0.4-1.4,0.7-2.1,0.7h-4l0.2-0.4v4.6c0,0.4-0.1,0.7-0.4,1S175.4,53,175,53c-0.4,0-0.7-0.1-0.9-0.4
			s-0.4-0.6-0.4-1V38.9c0-0.4,0.1-0.7,0.4-1c0.3-0.3,0.6-0.4,1-0.4H180.1z M180.1,45c0.3,0,0.6-0.1,0.8-0.4c0.3-0.2,0.5-0.5,0.7-0.9
			s0.3-0.8,0.3-1.2c0-0.4-0.1-0.8-0.3-1.2c-0.2-0.4-0.4-0.7-0.7-0.9c-0.3-0.2-0.5-0.3-0.8-0.3H176l0.3-0.4v5.6l-0.2-0.4H180.1z"/>
		<path class="st2" d="M195.5,50.4c0.4,0,0.7,0.1,1,0.4c0.3,0.2,0.4,0.6,0.4,0.9c0,0.4-0.1,0.7-0.4,0.9c-0.3,0.2-0.6,0.4-1,0.4h-7.2
			c-0.4,0-0.7-0.1-1-0.4c-0.3-0.3-0.4-0.6-0.4-1V38.9c0-0.4,0.1-0.7,0.4-1s0.6-0.4,1-0.4c0.4,0,0.7,0.1,0.9,0.4
			c0.3,0.3,0.4,0.6,0.4,1v11.9l-0.5-0.4H195.5z"/>
		<path class="st2" d="M205.1,41.1l-4.8,11.2c-0.1,0.3-0.3,0.5-0.5,0.6s-0.4,0.2-0.7,0.2c-0.4,0-0.7-0.1-0.9-0.3
			c-0.2-0.2-0.3-0.5-0.3-0.8c0-0.1,0-0.3,0.1-0.4l5.5-13.2c0.1-0.3,0.3-0.5,0.5-0.7c0.2-0.2,0.5-0.2,0.8-0.2c0.3,0,0.5,0.1,0.7,0.2
			c0.2,0.2,0.4,0.4,0.5,0.6l5.4,12.9c0.1,0.2,0.1,0.4,0.1,0.5c0,0.4-0.1,0.7-0.4,0.9c-0.3,0.2-0.5,0.4-0.8,0.4
			c-0.3,0-0.5-0.1-0.7-0.2c-0.2-0.2-0.4-0.4-0.5-0.7l-4.7-11L205.1,41.1z M201,49.5l1.2-2.5h5.9l0.4,2.5H201z"/>
		<path class="st2" d="M222.3,37.5c0.3,0,0.6,0.1,0.9,0.4c0.3,0.3,0.4,0.6,0.4,1c0,0.1,0,0.3-0.1,0.4c0,0.1-0.1,0.3-0.2,0.4l-5,7.2
			l0.4-1.5v6.3c0,0.4-0.1,0.7-0.4,1c-0.3,0.3-0.6,0.4-0.9,0.4c-0.4,0-0.7-0.1-0.9-0.4c-0.3-0.3-0.4-0.6-0.4-1v-6.1l0.2,0.7l-4.8-6.3
			c-0.1-0.2-0.2-0.4-0.3-0.5c-0.1-0.2-0.1-0.3-0.1-0.5c0-0.4,0.2-0.7,0.5-1c0.3-0.2,0.6-0.4,0.9-0.4c0.4,0,0.8,0.2,1.1,0.6L218,44
			l-0.6-0.1l3.9-5.7C221.5,37.8,221.9,37.5,222.3,37.5z"/>
	</g>
	<g class="st1">
		<path class="st2" d="M88.3,23.5c0,0.7-0.1,1.3-0.3,1.9c-0.2,0.6-0.5,1.1-0.9,1.5c-0.4,0.4-0.9,0.7-1.4,1s-1.1,0.3-1.7,0.3
			c-0.6,0-1.2-0.1-1.7-0.3s-1-0.6-1.4-1c-0.4-0.4-0.7-0.9-0.9-1.5c-0.2-0.6-0.3-1.2-0.3-1.9s0.1-1.3,0.3-1.9
			c0.2-0.6,0.5-1.1,0.9-1.5c0.4-0.4,0.9-0.7,1.4-1s1.1-0.3,1.7-0.3c0.6,0,1.2,0.1,1.7,0.3s1,0.6,1.4,1c0.4,0.4,0.7,0.9,0.9,1.5
			C88.2,22.1,88.3,22.8,88.3,23.5z M87.5,23.5c0-0.8-0.1-1.4-0.4-2c-0.3-0.6-0.7-1-1.2-1.4c-0.5-0.3-1.1-0.5-1.8-0.5
			c-0.7,0-1.3,0.2-1.8,0.5c-0.5,0.3-0.9,0.8-1.2,1.4c-0.3,0.6-0.4,1.3-0.4,2s0.1,1.4,0.4,2c0.3,0.6,0.7,1,1.2,1.4
			c0.5,0.3,1.1,0.5,1.8,0.5c0.7,0,1.3-0.2,1.8-0.5c0.5-0.3,0.9-0.8,1.2-1.4C87.4,24.9,87.5,24.2,87.5,23.5z"/>
		<path class="st2" d="M96.8,18.9c0.1,0,0.2,0,0.3,0.1s0.1,0.2,0.1,0.3v8.3c0,0.1,0,0.2-0.1,0.3C97,28,96.9,28,96.8,28
			c-0.1,0-0.1,0-0.2,0s-0.1-0.1-0.1-0.1l-5.8-7.8l0.2-0.1v7.7c0,0.1,0,0.2-0.1,0.2C90.7,28,90.6,28,90.5,28c-0.1,0-0.2,0-0.3-0.1
			s-0.1-0.2-0.1-0.2v-8.4c0-0.1,0-0.2,0.1-0.3c0.1-0.1,0.2-0.1,0.3-0.1c0.1,0,0.1,0,0.2,0c0.1,0,0.1,0.1,0.1,0.1l5.7,7.7L96.5,27
			v-7.7c0-0.1,0-0.2,0.1-0.3S96.7,18.9,96.8,18.9z"/>
		<path class="st2" d="M99.3,19.6c-0.1,0-0.2,0-0.3-0.1s-0.1-0.2-0.1-0.3c0-0.1,0-0.2,0.1-0.3s0.2-0.1,0.3-0.1h6.2
			c0.1,0,0.2,0,0.3,0.1s0.1,0.2,0.1,0.3c0,0.1,0,0.2-0.1,0.3c-0.1,0.1-0.2,0.1-0.3,0.1H99.3z M102.3,28c-0.1,0-0.2,0-0.3-0.1
			s-0.1-0.2-0.1-0.3v-8.3h0.8v8.3c0,0.1,0,0.2-0.1,0.3S102.5,28,102.3,28z"/>
		<path class="st2" d="M111.2,18.9c0.6,0,1.2,0.1,1.7,0.4c0.5,0.2,0.9,0.6,1.2,1s0.5,0.9,0.7,1.5c0.2,0.5,0.2,1.1,0.2,1.7
			c0,0.8-0.1,1.6-0.4,2.3c-0.3,0.7-0.7,1.2-1.2,1.7c-0.6,0.4-1.3,0.6-2.1,0.6h-3.3c-0.1,0-0.2,0-0.3-0.1c-0.1-0.1-0.1-0.2-0.1-0.3
			v-8.3c0-0.1,0-0.2,0.1-0.3c0.1-0.1,0.2-0.1,0.3-0.1H111.2z M111.1,27.2c0.7,0,1.3-0.2,1.8-0.5c0.5-0.3,0.8-0.8,1-1.4
			s0.3-1.2,0.3-1.9c0-0.5-0.1-1-0.2-1.4c-0.1-0.5-0.3-0.9-0.5-1.2c-0.2-0.4-0.6-0.6-1-0.8c-0.4-0.2-0.9-0.3-1.4-0.3h-2.8l0.1-0.1
			v7.8l-0.1-0.1H111.1z"/>
		<path class="st2" d="M117.2,18.9h4.8c0.1,0,0.2,0,0.3,0.1c0.1,0.1,0.1,0.2,0.1,0.3s0,0.2-0.1,0.3c-0.1,0.1-0.2,0.1-0.3,0.1h-4.5
			l0.1-0.2v3.7l-0.1-0.2h3.9c0.1,0,0.2,0,0.3,0.1c0.1,0.1,0.1,0.2,0.1,0.3c0,0.1,0,0.2-0.1,0.3c-0.1,0.1-0.2,0.1-0.3,0.1h-3.9
			l0.1-0.1v3.7l-0.1-0.1h4.4c0.1,0,0.2,0,0.3,0.1c0.1,0.1,0.1,0.2,0.1,0.3c0,0.1,0,0.2-0.1,0.3c-0.1,0.1-0.2,0.1-0.3,0.1h-4.8
			c-0.1,0-0.2,0-0.3-0.1c-0.1-0.1-0.1-0.2-0.1-0.3v-8.3c0-0.1,0-0.2,0.1-0.3C117,18.9,117.1,18.9,117.2,18.9z"/>
		<path class="st2" d="M124.6,28c-0.1,0-0.2,0-0.3-0.1s-0.1-0.2-0.1-0.3v-8.3c0-0.1,0-0.2,0.1-0.3c0.1-0.1,0.2-0.1,0.3-0.1
			c0.1,0,0.2,0,0.3,0.1c0.1,0.1,0.1,0.2,0.1,0.3v8.3c0,0.1-0.1,0.2-0.1,0.3C124.8,28,124.7,28,124.6,28z M130.6,18.9
			c0.1,0,0.2,0,0.3,0.1c0.1,0.1,0.1,0.2,0.1,0.3c0,0.1,0,0.2-0.1,0.3l-5.9,5.5l-0.1-0.9l5.5-5.2C130.4,19,130.5,18.9,130.6,18.9z
			 M130.7,28.1c-0.1,0-0.2,0-0.3-0.1l-3.7-4.6l0.6-0.6l3.7,4.7c0.1,0.1,0.1,0.2,0.1,0.3c0,0.1,0,0.2-0.1,0.3
			C130.9,28,130.8,28.1,130.7,28.1z"/>
		<path class="st2" d="M137,18.9c0.1,0,0.2,0,0.3,0.1c0.1,0.1,0.1,0.2,0.1,0.3v8.3c0,0.1-0.1,0.2-0.1,0.3S137.1,28,137,28
			c-0.1,0-0.2,0-0.3-0.1c-0.1-0.1-0.1-0.2-0.1-0.3v-8.3c0-0.1,0-0.2,0.1-0.3C136.7,18.9,136.8,18.9,137,18.9z M136.9,23h6.2l0,0.8
			h-6.2L136.9,23z M143.1,18.9c0.1,0,0.2,0,0.3,0.1c0.1,0.1,0.1,0.2,0.1,0.3v8.3c0,0.1-0.1,0.2-0.1,0.3s-0.2,0.1-0.3,0.1
			c-0.1,0-0.2,0-0.3-0.1s-0.1-0.2-0.1-0.3v-8.3c0-0.1,0-0.2,0.1-0.3C142.9,18.9,143,18.9,143.1,18.9z"/>
		<path class="st2" d="M146.3,18.9h4.8c0.1,0,0.2,0,0.3,0.1c0.1,0.1,0.1,0.2,0.1,0.3s0,0.2-0.1,0.3s-0.2,0.1-0.3,0.1h-4.5l0.1-0.2
			v3.7l-0.1-0.2h3.9c0.1,0,0.2,0,0.3,0.1c0.1,0.1,0.1,0.2,0.1,0.3c0,0.1,0,0.2-0.1,0.3c-0.1,0.1-0.2,0.1-0.3,0.1h-3.9l0.1-0.1v3.7
			l-0.1-0.1h4.4c0.1,0,0.2,0,0.3,0.1c0.1,0.1,0.1,0.2,0.1,0.3c0,0.1,0,0.2-0.1,0.3s-0.2,0.1-0.3,0.1h-4.8c-0.1,0-0.2,0-0.3-0.1
			s-0.1-0.2-0.1-0.3v-8.3c0-0.1,0-0.2,0.1-0.3C146.1,18.9,146.2,18.9,146.3,18.9z"/>
		<path class="st2" d="M152.9,19.6c-0.1,0-0.2,0-0.3-0.1s-0.1-0.2-0.1-0.3c0-0.1,0-0.2,0.1-0.3s0.2-0.1,0.3-0.1h6.2
			c0.1,0,0.2,0,0.3,0.1s0.1,0.2,0.1,0.3c0,0.1,0,0.2-0.1,0.3c-0.1,0.1-0.2,0.1-0.3,0.1H152.9z M156,28c-0.1,0-0.2,0-0.3-0.1
			c-0.1-0.1-0.1-0.2-0.1-0.3v-8.3h0.8v8.3c0,0.1,0,0.2-0.1,0.3S156.1,28,156,28z"/>
		<path class="st2" d="M172.8,23.5c0,0.7-0.1,1.3-0.3,1.9c-0.2,0.6-0.5,1.1-0.9,1.5c-0.4,0.4-0.9,0.7-1.4,1s-1.1,0.3-1.7,0.3
			s-1.2-0.1-1.7-0.3s-1-0.6-1.4-1c-0.4-0.4-0.7-0.9-0.9-1.5c-0.2-0.6-0.3-1.2-0.3-1.9s0.1-1.3,0.3-1.9c0.2-0.6,0.5-1.1,0.9-1.5
			c0.4-0.4,0.9-0.7,1.4-1s1.1-0.3,1.7-0.3s1.2,0.1,1.7,0.3s1,0.6,1.4,1c0.4,0.4,0.7,0.9,0.9,1.5C172.7,22.1,172.8,22.8,172.8,23.5z
			 M172,23.5c0-0.8-0.1-1.4-0.4-2c-0.3-0.6-0.7-1-1.2-1.4c-0.5-0.3-1.1-0.5-1.8-0.5c-0.7,0-1.3,0.2-1.8,0.5s-0.9,0.8-1.2,1.4
			c-0.3,0.6-0.4,1.3-0.4,2s0.1,1.4,0.4,2s0.7,1,1.2,1.4c0.5,0.3,1.1,0.5,1.8,0.5c0.7,0,1.3-0.2,1.8-0.5c0.5-0.3,0.9-0.8,1.2-1.4
			C171.8,24.9,172,24.2,172,23.5z"/>
		<path class="st2" d="M178.1,18.9c0.5,0,0.9,0.1,1.3,0.3c0.4,0.2,0.7,0.5,0.9,0.9c0.2,0.4,0.3,0.8,0.3,1.3c0,0.5-0.1,1-0.3,1.4
			c-0.2,0.4-0.5,0.7-0.9,1c-0.4,0.2-0.8,0.4-1.3,0.4h-2.8l0.1-0.1v3.6c0,0.1,0,0.2-0.1,0.3c-0.1,0.1-0.2,0.1-0.3,0.1
			c-0.1,0-0.2,0-0.3-0.1s-0.1-0.2-0.1-0.3v-8.3c0-0.1,0-0.2,0.1-0.3c0.1-0.1,0.2-0.1,0.3-0.1H178.1z M178.1,23.4
			c0.3,0,0.6-0.1,0.9-0.3c0.3-0.2,0.4-0.4,0.6-0.7c0.1-0.3,0.2-0.6,0.2-1s-0.1-0.7-0.2-0.9c-0.1-0.3-0.3-0.5-0.6-0.6
			c-0.3-0.2-0.5-0.2-0.9-0.2h-2.8l0.1-0.1v3.9l-0.1-0.1H178.1z"/>
	</g>
</g>
<g id="google-play-store" transform="translate(-627 -6438.999)">
	
		<linearGradient id="Path_1_1_" gradientUnits="userSpaceOnUse" x1="91.2315" y1="6845.125" x2="92.2315" y2="6845.125" gradientTransform="matrix(30.387 0 0 -26.0209 -2119.251 184576.0781)">
		<stop  offset="0" style="stop-color:#63BE6B"/>
		<stop  offset="0.506" style="stop-color:#5BBC6A"/>
		<stop  offset="1" style="stop-color:#4AB96A"/>
	</linearGradient>
	<path id="Path_1" class="st3" d="M683.4,6463.5l-28.6-16.4c-0.4-0.2-0.8-0.2-1.2,0c-0.4,0.2-0.6,0.6-0.6,1c0,0,0,1.5,0,4l20.9,20.9
		L683.4,6463.5z"/>
	
		<linearGradient id="Path_2_1_" gradientUnits="userSpaceOnUse" x1="99.5364" y1="6850.125" x2="100.5354" y2="6850.125" gradientTransform="matrix(20.877 0 0 -41.557 -1424.9979 291143.5625)">
		<stop  offset="0" style="stop-color:#3EC6F2"/>
		<stop  offset="1" style="stop-color:#45AFE3"/>
	</linearGradient>
	<path id="Path_2" class="st4" d="M653,6452.2c0,9,0.1,30.7,0.2,41.6l20.7-20.7L653,6452.2z"/>
	
		<linearGradient id="Path_3_1_" gradientUnits="userSpaceOnUse" x1="93.9072" y1="6841.2959" x2="94.9072" y2="6841.2959" gradientTransform="matrix(26.498 0 0 -20.229 -1814.4871 144866.2344)">
		<stop  offset="0" style="stop-color:#FAA51A"/>
		<stop  offset="0.387" style="stop-color:#FAB716"/>
		<stop  offset="0.741" style="stop-color:#FAC412"/>
		<stop  offset="1" style="stop-color:#FAC80F"/>
	</linearGradient>
	<path id="Path_3" class="st5" d="M699.8,6472.9l-16.4-9.4l-9.5,9.5l10.7,10.7l15.2-8.8c0.4-0.2,0.6-0.6,0.6-1
		C700.4,6473.5,700.1,6473.1,699.8,6472.9z"/>
	
		<linearGradient id="Path_4_1_" gradientUnits="userSpaceOnUse" x1="90.6321" y1="6846.1484" x2="91.6321" y2="6846.1484" gradientTransform="matrix(31.42 0 0 -28.1768 -2194.4629 199389.5938)">
		<stop  offset="0" style="stop-color:#EC3B50"/>
		<stop  offset="1" style="stop-color:#E7515B"/>
	</linearGradient>
	<path id="Path_4" class="st6" d="M653.2,6493.7c0,3.9,0,6.3,0,6.3c0,0.4,0.2,0.8,0.6,1c0.4,0.2,0.8,0.2,1.2,0l29.6-17.3l-10.7-10.7
		L653.2,6493.7z"/>
</g>
</svg>
