<svg xmlns="http://www.w3.org/2000/svg" xmlns:xlink="http://www.w3.org/1999/xlink" width="256" height="70" viewBox="0 0 256 70">
  <defs>
    <linearGradient id="linear-gradient" y1="0.5" x2="1" y2="0.5" gradientUnits="objectBoundingBox">
      <stop offset="0" stop-color="#63be6b"/>
      <stop offset="0.506" stop-color="#5bbc6a"/>
      <stop offset="1" stop-color="#4ab96a"/>
    </linearGradient>
    <linearGradient id="linear-gradient-2" y1="0.5" x2="0.999" y2="0.5" gradientUnits="objectBoundingBox">
      <stop offset="0" stop-color="#3ec6f2"/>
      <stop offset="1" stop-color="#45afe3"/>
    </linearGradient>
    <linearGradient id="linear-gradient-3" y1="0.5" x2="1" y2="0.5" gradientUnits="objectBoundingBox">
      <stop offset="0" stop-color="#faa51a"/>
      <stop offset="0.387" stop-color="#fab716"/>
      <stop offset="0.741" stop-color="#fac412"/>
      <stop offset="1" stop-color="#fac80f"/>
    </linearGradient>
    <linearGradient id="linear-gradient-4" y1="0.5" x2="1" y2="0.5" gradientUnits="objectBoundingBox">
      <stop offset="0" stop-color="#ec3b50"/>
      <stop offset="1" stop-color="#e7515b"/>
    </linearGradient>
  </defs>
  <g id="Group_127" data-name="Group 127" transform="translate(653 6447)">
    <g id="Group_33" data-name="Group 33" transform="translate(-754 -7118)">
      <rect id="Rectangle_4" data-name="Rectangle 4" width="256" height="70" rx="35" transform="translate(101 671)" fill="#0d0d0d"/>
      <g id="Group_35" data-name="Group 35" transform="translate(0 -1)">
        <text id="GOOGLE_PLAY" data-name="GOOGLE PLAY" transform="translate(178 724)" fill="#fff" font-size="22" font-family="Montserrat-Bold, Montserrat" font-weight="700"><tspan x="0" y="0">GOOGLE PLAY</tspan></text>
        <text id="ONTDEK_HET_OP" data-name="ONTDEK HET OP" transform="translate(180 699)" fill="#fff" font-size="13" font-family="Montserrat-Light, Montserrat" font-weight="300"><tspan x="0" y="0">ONTDEK HET OP</tspan></text>
      </g>
    </g>
    <g id="google-play-store" transform="translate(-627 -6438.999)">
      <path id="Path_1" data-name="Path 1" d="M30.387,16.522,1.742.15A1.153,1.153,0,0,0,.581.162,1.147,1.147,0,0,0,0,1.16S.012,2.67.023,5.155L20.889,26.02Z" transform="translate(0 0)" fill="url(#linear-gradient)"/>
      <path id="Path_2" data-name="Path 2" d="M.2,44.4c.035,8.964.139,30.724.186,41.557L21.077,65.266Z" transform="translate(-0.177 -39.245)" fill="url(#linear-gradient-2)"/>
      <path id="Path_3" data-name="Path 3" d="M205.7,151.67l-16.4-9.37-9.51,9.5,10.729,10.729,15.188-8.848a1.161,1.161,0,0,0,.581-1A1.176,1.176,0,0,0,205.7,151.67Z" transform="translate(-158.923 -125.778)" fill="url(#linear-gradient-3)"/>
      <path id="Path_4" data-name="Path 4" d="M1.7,244.88c.023,3.867.035,6.34.035,6.34a1.133,1.133,0,0,0,.581,1,1.153,1.153,0,0,0,1.161,0L33.12,234.929,22.391,224.2Z" transform="translate(-1.503 -198.168)" fill="url(#linear-gradient-4)"/>
    </g>
  </g>
</svg>
