<svg xmlns="http://www.w3.org/2000/svg" width="75.07" height="75.066" viewBox="0 0 75.07 75.066">
  <g id="Group_128" data-name="Group 128" transform="translate(-507 -2543.196)">
    <g id="Group_96" data-name="Group 96" transform="translate(507 2543.196)">
      <path id="Path_13" data-name="Path 13" d="M128.107,256.988c-.258-20.585,17.21-37.528,37.522-37.519,20.507.009,37.608,17.267,37.544,37.663-.063,20.1-16.932,37.41-37.585,37.4C145.178,294.529,127.834,277.52,128.107,256.988Zm37.416,32.5c17.387.475,32.6-14.435,32.681-32.29a32.6,32.6,0,1,0-65.2-.165C133,275.043,148.315,289.9,165.523,289.484Z" transform="translate(-128.104 -219.469)" fill="#f26b16"/>
      <path id="Path_14" data-name="Path 14" d="M245.779,406.623c-.659,10.531-7.757,21.367-21.877,21.423-13.945.055-21.308-10.5-22.012-21.493a18.882,18.882,0,0,1,2.577.044c.254.035.495.573.639.923a57.147,57.147,0,0,0,2.477,6.022c2.817,5.069,7.394,7.527,13.031,8.2a24.5,24.5,0,0,0,10.027-.747c6.209-1.863,9.68-6.324,11.527-12.288.719-2.323.707-2.328,3.12-2.161C245.425,406.552,245.56,406.587,245.779,406.623Z" transform="translate(-186.309 -366.989)" fill="#f26b16"/>
      <path id="Path_15" data-name="Path 15" d="M226.966,312.716a5.958,5.958,0,0,1,5.995,5.926,6.025,6.025,0,0,1-6.143,6.016,5.971,5.971,0,1,1,.148-11.941Z" transform="translate(-201.3 -293.025)" fill="#f26b16"/>
      <path id="Path_16" data-name="Path 16" d="M345.491,318.689a5.888,5.888,0,0,1-5.924,5.967,5.975,5.975,0,1,1-.078-11.948A5.863,5.863,0,0,1,345.491,318.689Z" transform="translate(-290.113 -293.019)" fill="#f26b16"/>
    </g>
  </g>
</svg>
