<svg xmlns="http://www.w3.org/2000/svg" width="75.16" height="74.825" viewBox="0 0 75.16 74.825">
  <g id="Group_126" data-name="Group 126" transform="translate(-947 -2553.759)">
    <g id="Group_107" data-name="Group 107" transform="translate(947 2553.759)">
      <g id="Group_106" data-name="Group 106">
        <path id="Path_32" data-name="Path 32" d="M2103.279,154.221l-34.566,17.149-3.014-6.1,37.58-18.757,37.581,18.757-3.015,6.1Z" transform="translate(-2065.699 -146.517)" fill="#f25e00"/>
        <ellipse id="Ellipse_1" data-name="Ellipse 1" cx="4.89" cy="4.89" rx="4.89" ry="4.89" transform="translate(53.962 46.412) rotate(-95.655)" fill="#f25e00"/>
        <path id="Path_33" data-name="Path 33" d="M2136.576,371.023c2.412-.335,41.733-4.421,41.733-4.421s2.613,0,2.613,1.675v8.613h10.919v.02a2.443,2.443,0,0,1,0,4.849v.02h-58.48v-7.826S2134.165,371.358,2136.576,371.023Z" transform="translate(-2130.748 -327.816)" fill="#f25e00"/>
        <path id="Path_34" data-name="Path 34" d="M2144.051,355.037l-.032-24.4h.023a2.789,2.789,0,0,1,5.426-.007h.023v.3l.053,40.04-5.472.007-.015-10.723h-58.951v10.986h-5.694V355.037h64.638Z" transform="translate(-2076.8 -296.423)" fill="#f25e00"/>
      </g>
    </g>
  </g>
</svg>
