<?xml version="1.0" encoding="utf-8"?>
<!-- Generator: Adobe Illustrator 23.0.3, SVG Export Plug-In . SVG Version: 6.00 Build 0)  -->
<svg version="1.1" id="Layer_1" xmlns="http://www.w3.org/2000/svg" xmlns:xlink="http://www.w3.org/1999/xlink" x="0px" y="0px"
	 viewBox="0 0 83.4 69.3" style="enable-background:new 0 0 83.4 69.3;" xml:space="preserve">
<style type="text/css">
	.st0{fill:#F25E00;}
</style>
<g>
	<path class="st0" d="M71.1,19.6c-0.1,0.6-0.2,1.1-0.3,1.6c0,0.2-0.2,0.4-0.2,0.6c-0.1,0.5,0.1,0.9,0.6,1.2c1.2,0.9,2.3,2,3.2,3.2
		c0.2,0.3,0.3,0.3,0.6,0.2c0.8-0.2,1.5-0.4,2.3-0.5c0.1,0,0.4,0.1,0.4,0.3c0.6,1.3,1.1,2.6,1.6,3.9c0.1,0.3,0,0.4-0.2,0.6
		c-0.6,0.4-1.1,0.8-1.8,1.2C77,32.1,77,32.4,77,32.7c0.3,1.5,0.3,3,0,4.5c-0.1,0.3,0,0.6,0.4,0.8c0.7,0.3,1.3,0.8,1.9,1.2
		c0.1,0.1,0.1,0.4,0.1,0.5c-0.5,1.3-1,2.6-1.6,3.9c0,0.1-0.3,0.2-0.4,0.2c-0.8-0.1-1.6-0.3-2.5-0.5c-0.1,0-0.3,0.1-0.4,0.2
		c-1,1.4-2.2,2.6-3.6,3.7c-0.3,0.2-0.1,0.5-0.1,0.7c0.1,0.7,0.2,1.4,0.4,2.1c0.1,0.3,0,0.4-0.3,0.5c-0.9,0.4-1.7,0.7-2.6,1.1
		c-0.3,0.1-0.7,0.2-1,0.4c-0.4,0.2-0.7,0.1-0.9-0.3c-0.4-0.6-0.8-1.2-1.2-1.8c-0.1-0.2-0.2-0.2-0.5-0.2c-1.4,0.1-2.8,0.4-4.2,0.1
		c-1-0.3-1.2-0.1-1.8,0.8c-0.3,0.4-0.6,0.8-0.8,1.3c-0.2,0.3-0.4,0.3-0.6,0.2c-1.3-0.5-2.5-1-3.8-1.6c-0.1,0-0.2-0.2-0.3-0.2
		c0.2-0.9,0.4-1.8,0.5-2.7c0-0.1-0.1-0.3-0.2-0.4c-1.4-1-2.6-2.1-3.5-3.5c-0.3-0.5-0.7-0.2-1.1-0.2c-0.6,0.1-1.2,0.3-1.9,0.4
		c-0.3,0.1-0.4,0-0.5-0.3c-0.5-1.2-1-2.4-1.5-3.6c-0.1-0.2-0.2-0.3-0.3-0.5c0.7-0.5,1.3-1,2.1-1.4c0.4-0.3,0.4-0.5,0.4-1
		c0-1.6,0-3.1,0-4.7c0-0.3-0.1-0.4-0.3-0.6c-0.7-0.5-1.4-1-2.2-1.5c0.6-1.4,1.2-2.8,1.7-4.1c0.1-0.3,0.3-0.3,0.6-0.3
		c0.7,0.1,1.4,0.3,2.1,0.5c0.3,0.1,0.6,0,0.7-0.2c1-1.3,2.1-2.5,3.4-3.5c0.2-0.1,0.3-0.4,0.2-0.6c-0.1-0.7-0.3-1.3-0.4-2
		c-0.1-0.4-0.1-0.7,0.3-0.9c1.1-0.4,2.2-0.9,3.3-1.3c0.3-0.1,0.6-0.3,0.8-0.2c0.2,0.1,0.3,0.4,0.5,0.7c0.3,0.5,0.7,1,1,1.5
		c0.1,0.1,0.3,0.2,0.4,0.2c1.2,0,2.4-0.2,3.5-0.2c0.5,0,1,0.1,1.5,0.2c0.2,0,0.4-0.1,0.5-0.2c0.5-0.6,0.9-1.3,1.3-2
		c0.1-0.2,0.3-0.3,0.6-0.2c0.9,0.4,1.8,0.8,2.7,1.2C70.3,19.2,70.8,19.4,71.1,19.6z M50.7,28.6c-0.7-0.1-1.4-0.2-2.1-0.4
		c-0.5-0.1-0.8,0-0.9,0.5c-0.1,0.3-0.2,0.5-0.3,0.7c-0.2,0.3,0,0.4,0.2,0.6c0.6,0.4,1.2,0.8,1.8,1.2c0.1,0.1,0.2,0.3,0.2,0.4
		c0,0.3-0.1,0.5-0.1,0.8c-0.4,1.9-0.4,3.8,0.1,5.7c0.1,0.3,0,0.5-0.3,0.7c-0.4,0.2-0.7,0.5-1.1,0.7c-0.9,0.6-0.9,0.6-0.5,1.6
		c0.1,0.1,0.1,0.3,0.2,0.4c0.1,0.2,0.2,0.3,0.5,0.3c0.6-0.1,1.3-0.2,1.9-0.4c0.4-0.1,0.6,0,0.8,0.3c1.2,1.9,2.6,3.4,4.6,4.5
		c0.1,0.1,0.3,0.4,0.3,0.5c0,0.3-0.1,0.7-0.2,1c-0.1,0.5-0.2,1-0.3,1.5c0.6,0.3,1.1,0.5,1.7,0.7c0.5-0.7,0.9-1.3,1.3-2
		c0.2-0.4,0.4-0.3,0.8-0.3c0.8,0.1,1.7,0.4,2.6,0.4c1,0,2.1,0,3.1-0.3c1-0.2,1.4,0.1,1.9,0.9c0.8,1.3,0.9,1.3,2.3,0.7
		c0,0,0.1,0,0.1,0c0.1-0.1,0.2-0.3,0.1-0.4c-0.1-0.7-0.2-1.4-0.4-2.1c-0.1-0.3,0-0.4,0.3-0.6c1.9-1.1,3.4-2.7,4.5-4.6
		c0.2-0.3,0.4-0.4,0.7-0.3c0.7,0.1,1.3,0.3,2,0.4c0.1,0,0.4-0.1,0.4-0.2c0.2-0.3,0.3-0.7,0.5-1.1c0.1-0.3,0.1-0.4-0.2-0.6
		c-0.4-0.3-0.9-0.6-1.3-0.9c-0.7-0.5-0.7-0.5-0.5-1.4c0.4-2,0.4-4-0.1-5.9c-0.1-0.3,0-0.5,0.3-0.7c0.5-0.3,1-0.7,1.6-1
		c0.4-0.2,0.5-0.5,0.2-0.9c-0.2-0.3-0.3-0.6-0.4-0.9c-0.1-0.3-0.2-0.3-0.5-0.2c-0.7,0.2-1.3,0.3-2,0.4c-0.3,0.1-0.5,0-0.7-0.3
		c-0.4-0.7-0.9-1.3-1.4-1.9c-0.9-1-1.9-1.9-3-2.6c-0.3-0.2-0.5-0.4-0.4-0.9c0.2-0.6,0.3-1.2,0.4-1.8c0-0.1-0.1-0.4-0.3-0.5
		c-0.4-0.2-0.9-0.4-1.4-0.6c-0.4,0.6-0.9,1.3-1.3,1.9c-0.2,0.3-0.3,0.4-0.7,0.3c-1.9-0.4-3.8-0.6-5.7-0.1c-1,0.3-1.4-0.1-1.9-0.9
		c-0.7-1.2-0.8-1.2-2.1-0.7c0,0-0.1,0-0.1,0c-0.3,0.1-0.4,0.2-0.3,0.5c0.1,0.6,0.2,1.3,0.4,1.9c0.1,0.4,0,0.5-0.3,0.7
		C53.5,24.9,51.9,26.5,50.7,28.6z"/>
	<path class="st0" d="M27.7,50.1c-0.7,0-1.5,0-2.2,0c0,0.3-0.1,0.5-0.1,0.7c-0.1,1.2-0.6,2-1.6,2.6c-0.1,0.1-0.2,0.3-0.3,0.4
		c-0.2,1.5-1.9,2.9-3.4,3.1c-1.3,0.2-2.4-0.1-3.4-0.8c-0.6-0.4-1-1.1-1.3-1.7c-0.3-0.5-0.4-0.9-0.9-1.2c-0.7-0.4-1.1-1.1-1.1-1.9
		c0-0.3,0-0.5-0.1-0.8c-0.1-0.1-0.3-0.3-0.4-0.3c-0.5,0-1,0-1.5,0c-0.3,0-0.4-0.1-0.4-0.4c0-0.3,0-0.7,0-1c0-0.3,0.1-0.4,0.4-0.4
		c0.5,0,0.9,0,1.5,0c-0.2-0.8-0.3-1.5-0.5-2.2c-0.1-0.5-0.2-1.1-0.3-1.6c-0.1-0.5-0.4-1-0.5-1.4c-0.5-1.1-0.9-2.2-1.4-3.3
		c-0.4-0.9-0.9-1.8-1.4-2.7c-0.7-1.4-1.5-2.7-1.7-4.3c-0.2-1.3-0.1-2.6,0-3.9c0.2-2.6,1.4-4.9,3.2-6.8c1.3-1.4,2.9-2.5,4.7-3.2
		c1.7-0.7,3.6-0.9,5.4-0.8c1.7,0.1,3.3,0.6,4.8,1.4c1.9,1,3.4,2.4,4.6,4.1c1.1,1.6,1.8,3.4,2,5.4c0.2,1.6,0.2,3.2-0.3,4.8
		c-0.4,1.1-0.9,2.2-1.4,3.2c-0.6,1.3-1.4,2.6-2,4c-0.7,1.6-1.2,3.2-1.7,4.9c-0.2,0.8-0.4,1.6-0.5,2.5c0.7,0,1.3,0,1.9,0
		C27.7,48.9,27.7,49.5,27.7,50.1z M14.9,48.2c0.1,0,0.2,0,0.2,0c2.8,0,5.7,0,8.5,0c0.3,0,0.4-0.2,0.4-0.4c0.1-0.6,0.2-1.2,0.4-1.7
		c0.9-3.6,2.2-7,4.2-10.1c1-1.7,1.5-3.5,1.5-5.5c0-1.8-0.5-3.6-1.4-5.2c-1.8-3.1-4.5-4.9-8-5.3c-2.4-0.3-4.8,0.2-6.9,1.5
		c-3.1,2-4.8,4.8-5.1,8.5c-0.2,2,0.3,3.9,1.3,5.7c0.7,1.2,1.4,2.5,2,3.8C13.4,42.2,14.3,45.1,14.9,48.2z M23.6,50.2
		c-2.9,0-5.6,0-8.4,0c0,0.2,0.1,0.4,0.1,0.5c0.1,1,0.3,1.2,1.3,1.2c1.5,0,2.9,0,4.4,0c0.6,0,1.1,0,1.7,0c0.4,0,0.7-0.3,0.8-0.7
		C23.6,50.9,23.6,50.6,23.6,50.2z M17.2,53.9c0.5,0.8,1.2,1.2,2,1.3c1,0.1,1.8-0.3,2.4-1.3C20.2,53.9,18.8,53.9,17.2,53.9z"/>
	<path class="st0" d="M58.4,8.8c0-1.4,0-2.7,0-4.1c0.5,0,1,0,1.5,0c0.1,0,0.3,0.3,0.3,0.5c0.1,0.7,0.1,1.5,0.1,2.2
		c0,1.4,0.1,2.8,0.1,4.1c0,0.3-0.1,0.5-0.4,0.5c-1,0-2,0.1-3,0.1c-1.1,0-2.2,0.1-3.4,0.1c-0.4,0-0.5-0.1-0.5-0.5c0-0.3,0-0.5,0-0.8
		c0-0.4,0.2-0.5,0.5-0.5c0.6,0,1.2,0,1.8,0c0.5,0,1-0.1,1.5-0.2C52.5,6,47.3,3.3,41,3c-6.2-0.3-11.8,1.6-16.8,5.3
		c-0.3-0.3-0.6-0.7-0.9-1.1C23,7,23.1,6.9,23.3,6.7c1.5-0.9,3-1.9,4.5-2.7c1.4-0.7,2.9-1.2,4.4-1.7c1-0.3,2.1-0.6,3.2-0.8
		c0.7-0.1,1.4-0.2,2.1-0.2c1.1-0.1,2.1-0.2,3.2-0.1c1.2,0.1,2.5,0.2,3.7,0.5c1,0.2,2,0.4,3,0.8c1.2,0.4,2.3,0.9,3.5,1.4
		c1.2,0.6,2.3,1.2,3.4,1.9c1.3,0.9,2.6,1.9,3.8,2.9C58.2,8.6,58.3,8.7,58.4,8.8z"/>
	<path class="st0" d="M57.1,59c-0.7,0-1.3,0-2,0c-0.5,0-1,0-1.5,0c-0.2,0-0.4-0.2-0.4-0.3c0-0.5,0-1.1,0-1.6c1.4,0.1,2.7,0.1,4,0.1
		c1,0,1.9,0.1,2.9,0.1c0.1,0,0.3,0.2,0.3,0.4c0,0.8-0.1,1.6-0.2,2.5c0,0.3,0,0.6,0,0.9c0,1,0,2,0,3c0,0.5-0.2,0.6-0.7,0.5
		c-0.4-0.1-0.7-0.1-1.1-0.1c0-1.3,0-2.6,0-4.1c-5.8,5-12.3,8.1-20,7.6c-5.7-0.3-10.8-2.3-15.5-5.8c0.4-0.5,0.8-0.9,1.2-1.3
		c5,3.8,10.7,5.8,17,5.4c6.2-0.4,11.4-3.1,16-7.2C57.2,59.2,57.1,59.1,57.1,59z"/>
	<path class="st0" d="M1.7,29.7c1,0,1.9,0,2.8,0c0.1,0,0.2,0.2,0.3,0.3c0,0,0,0,0,0c0.1,1.5,0.1,1.5-1.4,1.5c-0.4,0-0.9,0-1.3,0
		c-0.4,0-0.5-0.1-0.5-0.5C1.7,30.7,1.7,30.2,1.7,29.7z"/>
	<path class="st0" d="M35.6,29.7c0.4,0,0.7,0,1.1,0c0.4,0,0.5,0.1,0.5,0.5c0,0.3,0,0.6,0,0.9c0,0.4-0.1,0.5-0.5,0.5
		c-0.7,0-1.4,0-2.1,0c-0.4,0-0.5-0.1-0.5-0.5c0-0.3,0-0.6,0-0.9c0-0.4,0.1-0.5,0.5-0.5C34.9,29.8,35.2,29.7,35.6,29.7z"/>
	<path class="st0" d="M20.3,16c-0.5,0-1,0-1.4,0c-0.3,0-0.4-0.2-0.4-0.4c0-0.7-0.1-1.5,0-2.2c0.1-0.8,0.9-0.3,1.4-0.4
		c0.3-0.1,0.5,0.1,0.5,0.5C20.3,14.3,20.3,15.1,20.3,16z"/>
	<path class="st0" d="M9.7,41.5c-0.8,0.8-1.5,1.5-2.3,2.2c-0.3-0.4-0.7-0.9-1.2-1.5c0.6-0.5,1.3-1.2,2-1.8c0.1-0.1,0.3,0,0.4,0
		C9,40.9,9.3,41.2,9.7,41.5z"/>
	<path class="st0" d="M29.2,41.7c0.5-0.5,0.9-0.9,1.3-1.3c0.6,0.6,1.2,1.3,1.8,1.9c0.1,0.1,0.1,0.3,0,0.4c-0.2,0.3-0.5,0.6-0.8,0.8
		c-0.1,0.1-0.3,0.1-0.4,0C30.4,42.9,29.8,42.3,29.2,41.7z"/>
	<path class="st0" d="M6.3,18.7c0.4-0.3,0.7-0.7,1.1-1c0.1-0.1,0.3-0.1,0.4,0c0.6,0.6,1.2,1.1,1.7,1.7c0.1,0.1,0.1,0.3,0,0.4
		c-0.2,0.3-0.5,0.5-0.8,0.8c-0.2,0.3-0.4,0.2-0.6,0C7.6,20,6.9,19.4,6.3,18.7z"/>
	<path class="st0" d="M30.3,20.8c-0.3-0.3-0.5-0.6-0.9-0.9c-0.3-0.2-0.2-0.4,0-0.6c0.6-0.6,1.1-1.2,1.7-1.9c0.5,0.5,0.9,0.9,1.2,1.3
		C31.7,19.4,31,20.1,30.3,20.8z"/>
	<path class="st0" d="M62.2,25.9c5.2,0.1,9.2,3.9,9.2,9c0,5.1-4,9-8.8,9.1c-5.4,0.2-9.4-4.2-9.4-9C53.1,30,57.2,25.9,62.2,25.9z
		 M69.5,35c0.2-3.9-3.1-7.4-7.2-7.3c-4,0-7.2,3.3-7.2,7.3c0,3.9,3.3,7.2,7.2,7.2C66.1,42.3,69.6,39,69.5,35z"/>
	<path class="st0" d="M11.5,27.4c1.2-2.1,2.7-3.7,5-4.6c0.9-0.4,1.9-0.6,2.9-0.6c0.1,0,0.3,0.2,0.3,0.3c0.1,0.4,0.1,0.9,0,1.3
		c-0.1,0.5-0.7,0.3-1,0.3c-2.5,0.4-4.2,1.8-5.4,3.9c-0.1,0.2-0.3,0.3-0.5,0.1C12.4,27.8,11.9,27.6,11.5,27.4z"/>
</g>
</svg>
