<svg xmlns="http://www.w3.org/2000/svg" width="256" height="70" viewBox="0 0 256 70">
  <g id="Group_128" data-name="Group 128" transform="translate(643 6351)">
    <g id="Group_34" data-name="Group 34" transform="translate(-744 -7022)">
      <rect id="Rectangle_4" data-name="Rectangle 4" width="256" height="70" rx="35" transform="translate(101 671)" fill="#0d0d0d"/>
      <g id="Group_36" data-name="Group 36" transform="translate(0 -1)">
        <text id="APP_STORE" data-name="APP STORE" transform="translate(178 724)" fill="#fff" font-size="22" font-family="Montserrat-Bold, Montserrat" font-weight="700"><tspan x="0" y="0">APP STORE</tspan></text>
        <text id="DOWNLOAD_IN_DE" data-name="DOWNLOAD IN DE" transform="translate(180 699)" fill="#fff" font-size="13" font-family="Montserrat-Light, Montserrat" font-weight="300"><tspan x="0" y="0">DOWNLOAD IN DE</tspan></text>
      </g>
    </g>
    <path id="apple-brands" d="M36.429,56.391c-.021-3.782,1.69-6.636,5.152-8.738-1.937-2.772-4.864-4.3-8.728-4.6-3.658-.289-7.656,2.133-9.12,2.133-1.546,0-5.09-2.03-7.873-2.03C10.111,43.253,4,47.745,4,56.886a25.683,25.683,0,0,0,1.484,8.367c1.319,3.782,6.08,13.056,11.047,12.9,2.6-.062,4.431-1.845,7.811-1.845,3.277,0,4.977,1.845,7.873,1.845,5.008-.072,9.315-8.5,10.573-12.293-6.719-3.164-6.358-9.274-6.358-9.47ZM30.6,39.471A9.705,9.705,0,0,0,33.069,32a10.927,10.927,0,0,0-7,3.6,9.858,9.858,0,0,0-2.638,7.409C26.124,43.211,28.576,41.831,30.6,39.471Z" transform="translate(-624 -6371)" fill="#fff"/>
  </g>
</svg>
