<?xml version="1.0" encoding="utf-8"?>
<!-- Generator: Adobe Illustrator 23.0.6, SVG Export Plug-In . SVG Version: 6.00 Build 0)  -->
<svg version="1.1" id="Layer_1" xmlns="http://www.w3.org/2000/svg" xmlns:xlink="http://www.w3.org/1999/xlink" x="0px" y="0px"
	 viewBox="0 0 256 70" style="enable-background:new 0 0 256 70;" xml:space="preserve">
<style type="text/css">
	.st0{fill:#0D0D0D;}
	.st1{enable-background:new    ;}
	.st2{fill:#FFFFFF;}
</style>
<g id="Group_128" transform="translate(643 6351)">
	<g id="Group_34" transform="translate(-744 -7022)">
		<path id="Rectangle_4" class="st0" d="M136,671h186c19.3,0,35,15.7,35,35l0,0c0,19.3-15.7,35-35,35H136c-19.3,0-35-15.7-35-35l0,0
			C101,686.7,116.7,671,136,671z"/>
		<g id="Group_36" transform="translate(0 -1)">
			<g class="st1">
				<path class="st2" d="M185.3,712.1l-4.8,11.2c-0.1,0.3-0.3,0.5-0.5,0.6c-0.2,0.2-0.4,0.2-0.7,0.2c-0.4,0-0.7-0.1-0.9-0.3
					c-0.2-0.2-0.3-0.5-0.3-0.8c0-0.1,0-0.3,0.1-0.4l5.5-13.2c0.1-0.3,0.3-0.5,0.5-0.7c0.2-0.2,0.5-0.2,0.8-0.2
					c0.3,0,0.5,0.1,0.7,0.2s0.4,0.4,0.5,0.6l5.4,12.9c0.1,0.2,0.1,0.4,0.1,0.5c0,0.4-0.1,0.7-0.4,0.9c-0.3,0.2-0.5,0.4-0.8,0.4
					c-0.3,0-0.5-0.1-0.7-0.2c-0.2-0.2-0.4-0.4-0.5-0.7l-4.7-11L185.3,712.1z M181.2,720.5l1.2-2.5h5.9l0.4,2.5H181.2z"/>
				<path class="st2" d="M200.1,708.6c0.8,0,1.5,0.2,2.1,0.7c0.7,0.4,1.2,1,1.6,1.8s0.6,1.6,0.6,2.5c0,0.9-0.2,1.7-0.6,2.5
					s-0.9,1.3-1.6,1.8s-1.4,0.7-2.1,0.7h-4l0.2-0.4v4.6c0,0.4-0.1,0.7-0.4,1c-0.2,0.3-0.5,0.4-0.9,0.4c-0.4,0-0.7-0.1-0.9-0.4
					c-0.2-0.3-0.4-0.6-0.4-1v-12.7c0-0.4,0.1-0.7,0.4-1c0.3-0.3,0.6-0.4,1-0.4H200.1z M200.1,716c0.3,0,0.6-0.1,0.8-0.4
					c0.3-0.2,0.5-0.5,0.7-0.9c0.2-0.4,0.3-0.8,0.3-1.2c0-0.4-0.1-0.8-0.3-1.2c-0.2-0.4-0.4-0.7-0.7-0.9c-0.3-0.2-0.5-0.3-0.8-0.3
					H196l0.3-0.4v5.6L196,716H200.1z"/>
				<path class="st2" d="M213.3,708.6c0.8,0,1.5,0.2,2.1,0.7c0.7,0.4,1.2,1,1.6,1.8s0.6,1.6,0.6,2.5c0,0.9-0.2,1.7-0.6,2.5
					s-0.9,1.3-1.6,1.8s-1.4,0.7-2.1,0.7h-4l0.2-0.4v4.6c0,0.4-0.1,0.7-0.4,1c-0.2,0.3-0.5,0.4-0.9,0.4c-0.4,0-0.7-0.1-0.9-0.4
					c-0.2-0.3-0.4-0.6-0.4-1v-12.7c0-0.4,0.1-0.7,0.4-1c0.3-0.3,0.6-0.4,1-0.4H213.3z M213.3,716c0.3,0,0.6-0.1,0.8-0.4
					c0.3-0.2,0.5-0.5,0.7-0.9c0.2-0.4,0.3-0.8,0.3-1.2c0-0.4-0.1-0.8-0.3-1.2c-0.2-0.4-0.4-0.7-0.7-0.9c-0.3-0.2-0.5-0.3-0.8-0.3
					h-4.1l0.3-0.4v5.6l-0.2-0.4H213.3z"/>
				<path class="st2" d="M231.3,724.2c-1,0-2-0.1-2.8-0.4c-0.8-0.3-1.6-0.7-2.4-1.4c-0.2-0.2-0.3-0.3-0.4-0.6
					c-0.1-0.2-0.2-0.4-0.2-0.6c0-0.3,0.1-0.6,0.4-0.9c0.2-0.3,0.5-0.4,0.9-0.4c0.3,0,0.5,0.1,0.7,0.3c0.6,0.5,1.1,0.8,1.7,1
					c0.6,0.2,1.2,0.4,2,0.4c0.5,0,1-0.1,1.5-0.3c0.5-0.2,0.8-0.4,1.1-0.7s0.4-0.6,0.4-1c0-0.4-0.1-0.8-0.4-1.1
					c-0.3-0.3-0.7-0.6-1.2-0.8c-0.5-0.2-1.2-0.4-2.1-0.5c-0.8-0.1-1.5-0.3-2.1-0.5c-0.6-0.2-1.1-0.5-1.5-0.9s-0.7-0.8-0.9-1.3
					c-0.2-0.5-0.3-1.1-0.3-1.7c0-1,0.2-1.8,0.7-2.4s1.2-1.2,2-1.5c0.8-0.4,1.8-0.5,2.8-0.5c1,0,1.8,0.1,2.7,0.4
					c0.8,0.3,1.5,0.6,2,1.1c0.4,0.3,0.6,0.7,0.6,1.2c0,0.3-0.1,0.6-0.4,0.9c-0.2,0.3-0.5,0.4-0.9,0.4c-0.2,0-0.4-0.1-0.6-0.2
					c-0.2-0.2-0.5-0.4-0.9-0.6c-0.4-0.2-0.8-0.3-1.3-0.5c-0.4-0.1-0.9-0.2-1.2-0.2c-0.6,0-1.2,0.1-1.6,0.2s-0.8,0.4-1,0.7
					c-0.2,0.3-0.3,0.6-0.3,1c0,0.4,0.1,0.8,0.4,1.1c0.3,0.3,0.6,0.5,1.1,0.7c0.5,0.2,1.1,0.3,1.7,0.5c0.9,0.2,1.7,0.4,2.3,0.6
					c0.7,0.2,1.2,0.5,1.7,0.8s0.8,0.8,1,1.3c0.2,0.5,0.3,1.2,0.3,1.9c0,1-0.3,1.8-0.8,2.5c-0.5,0.7-1.2,1.2-2.1,1.6
					C233.3,724,232.3,724.2,231.3,724.2z"/>
				<path class="st2" d="M239.9,711.1c-0.4,0-0.7-0.1-1-0.4c-0.3-0.2-0.4-0.5-0.4-0.9c0-0.4,0.1-0.7,0.4-0.9c0.3-0.2,0.6-0.3,1-0.3
					h9.8c0.4,0,0.7,0.1,1,0.4s0.4,0.5,0.4,0.9c0,0.4-0.1,0.7-0.4,0.9s-0.6,0.3-1,0.3H239.9z M244.7,724c-0.4,0-0.7-0.1-1-0.4
					s-0.4-0.6-0.4-1v-12.8h2.9v12.8c0,0.4-0.1,0.7-0.4,1C245.5,723.9,245.2,724,244.7,724z"/>
				<path class="st2" d="M267,716.3c0,1.1-0.2,2.1-0.5,3.1c-0.4,1-0.9,1.8-1.6,2.5c-0.7,0.7-1.5,1.3-2.4,1.7c-0.9,0.4-1.9,0.6-3,0.6
					c-1.1,0-2.1-0.2-3-0.6c-0.9-0.4-1.7-1-2.4-1.7c-0.7-0.7-1.2-1.6-1.6-2.5c-0.4-1-0.5-2-0.5-3.1c0-1.1,0.2-2.1,0.5-3.1
					c0.4-1,0.9-1.8,1.6-2.5c0.7-0.7,1.5-1.3,2.4-1.7c0.9-0.4,1.9-0.6,3-0.6c1.1,0,2.1,0.2,3,0.6c0.9,0.4,1.7,1,2.4,1.7
					c0.7,0.7,1.2,1.6,1.6,2.5C266.8,714.2,267,715.2,267,716.3z M264.2,716.3c0-1-0.2-1.9-0.6-2.7c-0.4-0.8-0.9-1.4-1.6-1.9
					c-0.7-0.5-1.5-0.7-2.4-0.7c-0.9,0-1.7,0.2-2.4,0.7c-0.7,0.5-1.2,1.1-1.6,1.9c-0.4,0.8-0.6,1.7-0.6,2.7c0,1,0.2,1.9,0.6,2.7
					c0.4,0.8,0.9,1.4,1.6,1.9c0.7,0.5,1.5,0.7,2.4,0.7c0.9,0,1.7-0.2,2.4-0.7c0.7-0.5,1.2-1.1,1.6-1.9
					C264,718.2,264.2,717.3,264.2,716.3z"/>
				<path class="st2" d="M271.1,724c-0.4,0-0.8-0.1-1.1-0.4s-0.5-0.6-0.5-1v-12.7c0-0.4,0.1-0.7,0.4-1s0.6-0.4,1-0.4h6.3
					c0.8,0,1.5,0.2,2.1,0.6c0.7,0.4,1.2,1,1.6,1.7c0.4,0.7,0.6,1.5,0.6,2.5c0,0.6-0.1,1.1-0.3,1.6s-0.5,1-0.9,1.4
					c-0.4,0.4-0.8,0.8-1.3,1l0-0.5c0.4,0.2,0.8,0.5,1,0.8s0.5,0.6,0.6,1s0.2,0.7,0.3,1.1c0.1,0.4,0.1,0.7,0.1,1s0.1,0.5,0.1,0.7
					s0.2,0.3,0.4,0.4c0.3,0.2,0.5,0.5,0.6,0.8s0,0.7-0.3,1c-0.2,0.2-0.4,0.3-0.6,0.4c-0.2,0.1-0.5,0.1-0.7,0
					c-0.2-0.1-0.5-0.1-0.6-0.2c-0.2-0.1-0.5-0.4-0.7-0.6c-0.2-0.3-0.5-0.7-0.6-1.2c-0.2-0.5-0.2-1.1-0.2-1.9c0-0.2,0-0.5-0.1-0.7
					s-0.2-0.4-0.4-0.5c-0.2-0.2-0.4-0.3-0.6-0.4c-0.2-0.1-0.5-0.1-0.9-0.1H272l0.3-0.5v4.8c0,0.4-0.1,0.7-0.3,1S271.5,724,271.1,724
					z M272,716.1h5.1c0.3,0,0.5-0.1,0.8-0.4c0.2-0.2,0.5-0.6,0.6-1c0.2-0.4,0.2-0.9,0.2-1.4c0-0.6-0.2-1.2-0.5-1.6
					c-0.3-0.4-0.7-0.6-1.1-0.6H272l0.3-0.7v6.2L272,716.1z"/>
				<path class="st2" d="M286,708.6h7.4c0.4,0,0.7,0.1,1,0.4c0.3,0.2,0.4,0.6,0.4,0.9c0,0.4-0.1,0.7-0.4,0.9c-0.3,0.2-0.6,0.3-1,0.3
					h-6.2l0.2-0.4v4.3l-0.2-0.2h5.1c0.4,0,0.7,0.1,1,0.4c0.3,0.2,0.4,0.6,0.4,0.9c0,0.4-0.1,0.7-0.4,0.9c-0.3,0.2-0.6,0.3-1,0.3
					h-5.1l0.1-0.2v4.4l-0.2-0.2h6.1c0.4,0,0.7,0.1,1,0.4c0.3,0.3,0.4,0.6,0.4,0.9c0,0.4-0.1,0.7-0.4,0.9c-0.3,0.2-0.6,0.4-1,0.4H286
					c-0.4,0-0.7-0.1-1-0.4c-0.3-0.3-0.4-0.6-0.4-1v-12.7c0-0.4,0.1-0.7,0.4-1C285.3,708.7,285.6,708.6,286,708.6z"/>
			</g>
			<g class="st1">
				<path class="st2" d="M184.9,689.9c0.6,0,1.2,0.1,1.7,0.4s0.9,0.6,1.2,1c0.3,0.4,0.6,0.9,0.7,1.5c0.2,0.5,0.2,1.1,0.2,1.7
					c0,0.8-0.1,1.6-0.4,2.3c-0.3,0.7-0.7,1.2-1.3,1.7c-0.6,0.4-1.3,0.6-2.1,0.6h-3.2c-0.1,0-0.3-0.1-0.4-0.2
					c-0.1-0.1-0.1-0.2-0.1-0.4v-8c0-0.1,0-0.3,0.1-0.4s0.2-0.1,0.4-0.1H184.9z M184.8,698c0.7,0,1.2-0.2,1.6-0.5
					c0.4-0.3,0.7-0.7,0.9-1.3c0.2-0.5,0.3-1.1,0.3-1.8c0-0.5-0.1-0.9-0.2-1.3s-0.3-0.8-0.5-1.1c-0.2-0.3-0.5-0.6-0.9-0.8
					c-0.4-0.2-0.8-0.3-1.3-0.3h-2.7l0.1-0.1v7.3l-0.1-0.1H184.8z"/>
				<path class="st2" d="M198.7,694.5c0,0.7-0.1,1.3-0.3,1.9s-0.5,1.1-0.9,1.5c-0.4,0.4-0.9,0.8-1.4,1c-0.5,0.2-1.1,0.4-1.8,0.4
					c-0.6,0-1.2-0.1-1.8-0.4c-0.5-0.2-1-0.6-1.4-1c-0.4-0.4-0.7-0.9-0.9-1.5c-0.2-0.6-0.3-1.2-0.3-1.9c0-0.7,0.1-1.3,0.3-1.9
					c0.2-0.6,0.5-1.1,0.9-1.5c0.4-0.4,0.9-0.7,1.4-1c0.5-0.2,1.1-0.4,1.8-0.4c0.6,0,1.2,0.1,1.8,0.4c0.5,0.2,1,0.6,1.4,1
					c0.4,0.4,0.7,0.9,0.9,1.5C198.6,693.2,198.7,693.8,198.7,694.5z M197.6,694.5c0-0.7-0.1-1.3-0.4-1.9c-0.3-0.5-0.7-1-1.2-1.3
					c-0.5-0.3-1-0.5-1.7-0.5c-0.6,0-1.2,0.2-1.7,0.5c-0.5,0.3-0.9,0.7-1.2,1.3c-0.3,0.5-0.4,1.2-0.4,1.9c0,0.7,0.1,1.3,0.4,1.9
					c0.3,0.6,0.7,1,1.2,1.3c0.5,0.3,1.1,0.5,1.7,0.5c0.6,0,1.2-0.2,1.7-0.5c0.5-0.3,0.9-0.7,1.2-1.3
					C197.4,695.8,197.6,695.2,197.6,694.5z"/>
				<path class="st2" d="M210.8,689.9c0.1,0,0.3,0,0.4,0.1c0.1,0.1,0.2,0.2,0.2,0.4c0,0.1,0,0.1,0,0.2l-2.8,8.1
					c0,0.1-0.1,0.2-0.2,0.2c-0.1,0.1-0.2,0.1-0.3,0.1c-0.1,0-0.2,0-0.3-0.1c-0.1-0.1-0.2-0.1-0.2-0.3l-2.2-5.3l0.1,0l-2.2,5.2
					c-0.1,0.1-0.1,0.2-0.2,0.3c-0.1,0.1-0.2,0.1-0.3,0.1c-0.1,0-0.2,0-0.3-0.1c-0.1-0.1-0.2-0.1-0.2-0.2l-2.8-8.1c0-0.1,0-0.1,0-0.2
					c0-0.2,0.1-0.3,0.2-0.4s0.3-0.1,0.4-0.1c0.1,0,0.2,0,0.3,0.1s0.2,0.1,0.2,0.2l2.4,7.2h-0.2l2.1-5.2c0-0.1,0.1-0.2,0.2-0.2
					c0.1-0.1,0.2-0.1,0.3-0.1c0.1,0,0.2,0,0.3,0.1c0.1,0.1,0.2,0.1,0.2,0.2l2.1,5.2l-0.2,0.1l2.4-7.2c0-0.1,0.1-0.2,0.2-0.2
					S210.7,689.9,210.8,689.9z"/>
				<path class="st2" d="M219.5,689.9c0.1,0,0.3,0,0.4,0.1c0.1,0.1,0.1,0.2,0.1,0.3v8.1c0,0.2-0.1,0.3-0.2,0.4s-0.2,0.1-0.4,0.1
					c-0.1,0-0.2,0-0.2,0c-0.1,0-0.1-0.1-0.2-0.1l-5.6-7.4l0.3-0.2v7.2c0,0.1,0,0.3-0.1,0.3c-0.1,0.1-0.2,0.1-0.4,0.1
					c-0.1,0-0.3,0-0.3-0.1s-0.1-0.2-0.1-0.3v-8.1c0-0.2,0-0.3,0.1-0.4s0.2-0.1,0.4-0.1c0.1,0,0.2,0,0.2,0c0.1,0,0.1,0.1,0.2,0.1
					l5.5,7.3l-0.2,0.2v-7.2c0-0.1,0-0.3,0.1-0.3C219.3,689.9,219.4,689.9,219.5,689.9z"/>
				<path class="st2" d="M227.3,698c0.1,0,0.3,0.1,0.4,0.1c0.1,0.1,0.2,0.2,0.2,0.4s-0.1,0.3-0.2,0.4c-0.1,0.1-0.2,0.1-0.4,0.1h-4.5
					c-0.1,0-0.3-0.1-0.4-0.2c-0.1-0.1-0.1-0.2-0.1-0.4v-8c0-0.1,0.1-0.3,0.2-0.4s0.2-0.1,0.4-0.1c0.1,0,0.3,0,0.4,0.1
					s0.2,0.2,0.2,0.4v7.8l-0.3-0.2H227.3z"/>
				<path class="st2" d="M237.4,694.5c0,0.7-0.1,1.3-0.3,1.9s-0.5,1.1-0.9,1.5c-0.4,0.4-0.9,0.8-1.4,1c-0.5,0.2-1.1,0.4-1.8,0.4
					c-0.6,0-1.2-0.1-1.8-0.4c-0.5-0.2-1-0.6-1.4-1s-0.7-0.9-0.9-1.5c-0.2-0.6-0.3-1.2-0.3-1.9c0-0.7,0.1-1.3,0.3-1.9
					c0.2-0.6,0.5-1.1,0.9-1.5c0.4-0.4,0.9-0.7,1.4-1c0.5-0.2,1.1-0.4,1.8-0.4c0.6,0,1.2,0.1,1.8,0.4s1,0.6,1.4,1
					c0.4,0.4,0.7,0.9,0.9,1.5C237.3,693.2,237.4,693.8,237.4,694.5z M236.3,694.5c0-0.7-0.1-1.3-0.4-1.9c-0.3-0.5-0.7-1-1.2-1.3
					c-0.5-0.3-1-0.5-1.7-0.5c-0.6,0-1.2,0.2-1.7,0.5c-0.5,0.3-0.9,0.7-1.2,1.3c-0.3,0.5-0.4,1.2-0.4,1.9c0,0.7,0.1,1.3,0.4,1.9
					c0.3,0.6,0.7,1,1.2,1.3c0.5,0.3,1.1,0.5,1.7,0.5c0.6,0,1.2-0.2,1.7-0.5c0.5-0.3,0.9-0.7,1.2-1.3
					C236.2,695.8,236.3,695.2,236.3,694.5z"/>
				<path class="st2" d="M242.2,691.3l-3.1,7.4c0,0.1-0.1,0.2-0.2,0.2c-0.1,0.1-0.2,0.1-0.3,0.1c-0.2,0-0.3,0-0.4-0.1
					c-0.1-0.1-0.1-0.2-0.1-0.3c0-0.1,0-0.1,0-0.2l3.4-8.2c0-0.1,0.1-0.2,0.2-0.3c0.1-0.1,0.2-0.1,0.3-0.1c0.1,0,0.2,0,0.3,0.1
					c0.1,0.1,0.2,0.1,0.2,0.2l3.4,8.1c0,0.1,0,0.1,0,0.2c0,0.2-0.1,0.3-0.2,0.4s-0.2,0.1-0.4,0.1c-0.1,0-0.2,0-0.3-0.1
					c-0.1-0.1-0.2-0.1-0.2-0.3l-3.1-7.4L242.2,691.3z M239.8,696.6l0.4-1h3.9l0.2,1H239.8z"/>
				<path class="st2" d="M251.2,689.9c0.6,0,1.2,0.1,1.7,0.4s0.9,0.6,1.2,1s0.6,0.9,0.7,1.5c0.2,0.5,0.2,1.1,0.2,1.7
					c0,0.8-0.1,1.6-0.4,2.3c-0.3,0.7-0.7,1.2-1.3,1.7c-0.6,0.4-1.3,0.6-2.1,0.6H248c-0.1,0-0.3-0.1-0.4-0.2
					c-0.1-0.1-0.1-0.2-0.1-0.4v-8c0-0.1,0-0.3,0.1-0.4s0.2-0.1,0.4-0.1H251.2z M251.1,698c0.7,0,1.2-0.2,1.6-0.5
					c0.4-0.3,0.7-0.7,0.9-1.3c0.2-0.5,0.3-1.1,0.3-1.8c0-0.5-0.1-0.9-0.2-1.3s-0.3-0.8-0.5-1.1c-0.2-0.3-0.5-0.6-0.9-0.8
					c-0.4-0.2-0.8-0.3-1.3-0.3h-2.7l0.1-0.1v7.3l-0.1-0.1H251.1z"/>
				<path class="st2" d="M261.4,698.5c0,0.1-0.1,0.3-0.2,0.4c-0.1,0.1-0.2,0.2-0.4,0.2c-0.2,0-0.3-0.1-0.4-0.2
					c-0.1-0.1-0.1-0.2-0.1-0.4v-8c0-0.2,0.1-0.3,0.2-0.4s0.2-0.1,0.4-0.1c0.1,0,0.3,0,0.4,0.1c0.1,0.1,0.2,0.2,0.2,0.4V698.5z"/>
				<path class="st2" d="M270.5,689.9c0.1,0,0.3,0,0.4,0.1c0.1,0.1,0.1,0.2,0.1,0.3v8.1c0,0.2-0.1,0.3-0.2,0.4
					c-0.1,0.1-0.2,0.1-0.4,0.1c-0.1,0-0.2,0-0.2,0c-0.1,0-0.1-0.1-0.2-0.1l-5.6-7.4l0.3-0.2v7.2c0,0.1,0,0.3-0.1,0.3
					c-0.1,0.1-0.2,0.1-0.4,0.1c-0.1,0-0.3,0-0.3-0.1s-0.1-0.2-0.1-0.3v-8.1c0-0.2,0-0.3,0.1-0.4s0.2-0.1,0.4-0.1c0.1,0,0.2,0,0.2,0
					c0.1,0,0.1,0.1,0.2,0.1l5.5,7.3l-0.2,0.2v-7.2c0-0.1,0-0.3,0.1-0.3C270.2,689.9,270.3,689.9,270.5,689.9z"/>
				<path class="st2" d="M280.6,689.9c0.6,0,1.2,0.1,1.7,0.4c0.5,0.2,0.9,0.6,1.2,1c0.3,0.4,0.6,0.9,0.7,1.5
					c0.2,0.5,0.2,1.1,0.2,1.7c0,0.8-0.1,1.6-0.4,2.3c-0.3,0.7-0.7,1.2-1.3,1.7c-0.6,0.4-1.3,0.6-2.1,0.6h-3.2
					c-0.1,0-0.3-0.1-0.4-0.2c-0.1-0.1-0.2-0.2-0.2-0.4v-8c0-0.1,0.1-0.3,0.2-0.4s0.2-0.1,0.4-0.1H280.6z M280.4,698
					c0.7,0,1.2-0.2,1.6-0.5c0.4-0.3,0.7-0.7,0.9-1.3c0.2-0.5,0.3-1.1,0.3-1.8c0-0.5-0.1-0.9-0.2-1.3c-0.1-0.4-0.3-0.8-0.5-1.1
					c-0.2-0.3-0.5-0.6-0.9-0.8c-0.4-0.2-0.8-0.3-1.3-0.3h-2.7l0.1-0.1v7.3l-0.1-0.1H280.4z"/>
				<path class="st2" d="M286.7,689.9h4.6c0.1,0,0.3,0,0.4,0.1s0.2,0.2,0.2,0.4s-0.1,0.3-0.2,0.4s-0.2,0.1-0.4,0.1h-4.2l0.1-0.2v3.3
					l-0.1-0.1h3.6c0.1,0,0.3,0,0.4,0.1c0.1,0.1,0.2,0.2,0.2,0.4s-0.1,0.3-0.2,0.4s-0.2,0.1-0.4,0.1h-3.6l0.1-0.1v3.4l-0.1-0.1h4.1
					c0.1,0,0.3,0.1,0.4,0.2c0.1,0.1,0.2,0.2,0.2,0.4c0,0.1-0.1,0.3-0.2,0.4c-0.1,0.1-0.2,0.1-0.4,0.1h-4.6c-0.1,0-0.3-0.1-0.4-0.2
					c-0.1-0.1-0.2-0.2-0.2-0.4v-8c0-0.1,0.1-0.3,0.2-0.4S286.5,689.9,286.7,689.9z"/>
			</g>
		</g>
	</g>
	<path id="apple-brands" class="st2" d="M-587.6-6314.6c0-3.8,1.7-6.6,5.2-8.7c-1.9-2.8-4.9-4.3-8.7-4.6c-3.7-0.3-7.7,2.1-9.1,2.1
		c-1.5,0-5.1-2-7.9-2c-5.7,0.1-11.9,4.6-11.9,13.7c0,2.9,0.5,5.7,1.5,8.4c1.3,3.8,6.1,13.1,11,12.9c2.6-0.1,4.4-1.8,7.8-1.8
		c3.3,0,5,1.8,7.9,1.8c5-0.1,9.3-8.5,10.6-12.3C-587.9-6308.3-587.6-6314.4-587.6-6314.6L-587.6-6314.6z M-593.4-6331.5
		c1.8-2,2.7-4.7,2.5-7.5c-2.7,0.3-5.2,1.6-7,3.6c-1.9,2-2.8,4.7-2.6,7.4C-597.9-6327.8-595.4-6329.2-593.4-6331.5z"/>
</g>
</svg>
