<svg xmlns="http://www.w3.org/2000/svg" width="20.116" height="20.116" viewBox="0 0 20.116 20.116">
  <path id="linkedin-brands" d="M18.679,32H1.432A1.443,1.443,0,0,0,0,33.45V50.666a1.443,1.443,0,0,0,1.432,1.45H18.679a1.447,1.447,0,0,0,1.437-1.45V33.45A1.447,1.447,0,0,0,18.679,32ZM6.08,49.243H3.1v-9.6H6.084v9.6ZM4.589,38.331A1.729,1.729,0,1,1,6.318,36.6,1.729,1.729,0,0,1,4.589,38.331ZM17.256,49.243H14.274v-4.67c0-1.114-.022-2.546-1.549-2.546-1.554,0-1.792,1.212-1.792,2.465v4.751H7.952v-9.6h2.86v1.311h.04A3.14,3.14,0,0,1,13.677,39.4c3.017,0,3.579,1.989,3.579,4.576Z" transform="translate(0 -32)" fill="#0077b5"/>
</svg>
