<?xml version="1.0" encoding="utf-8"?>
<!-- Generator: Adobe Illustrator 23.0.3, SVG Export Plug-In . SVG Version: 6.00 Build 0)  -->
<svg version="1.1" id="Layer_1" xmlns="http://www.w3.org/2000/svg" xmlns:xlink="http://www.w3.org/1999/xlink" x="0px" y="0px"
	 viewBox="0 0 68.9 69.3" style="enable-background:new 0 0 68.9 69.3;" xml:space="preserve">
<style type="text/css">
	.st0{fill:#F25E00;}
</style>
<g>
	<path class="st0" d="M40.1,64.4c-0.5-1.9-1.7-2-3.2-2c-6.9,0.1-13.8,0-20.7,0c-2,0-2.9-0.9-2.9-3c0-13.8,0-27.6,0-41.4
		c0-2.1,0.9-3,3-3c11.6,0,23.1,0,34.7,0c2.3,0,3.2,0.9,3.2,3.2c0,9,0,18.1,0,27.1c0,1.5,0.5,2.4,2,2.8c0-0.4,0-0.7,0-1
		c0-3.8,0-7.7,0-11.5c0-7.6,0-15.1,0-22.7c0-2.6-1.7-4.3-4.3-4.3c-2.1,0-4.3,0-6.4,0c-0.2,0-0.5,0.1-0.7,0.1c0,0.8,0,1.6,0,2.4
		c0,1.4-0.9,2.3-2.3,2.3c-5.8,0-11.5,0-17.3,0c-1.4,0-2.3-0.9-2.3-2.3c0-0.8,0-1.6,0-2.5c-2.3,0-4.5,0-6.8,0c-3,0-4.7,1.7-4.7,4.7
		c0,15.5,0,31,0,46.5c0,2.9,1.7,4.6,4.6,4.6c7.8,0,15.5,0,23.3,0C39.5,64.4,39.8,64.4,40.1,64.4z M39,24.2c2.3,0,4.6,0,6.8,0
		c0.9,0,1.9,0.1,2.8,0c0.3,0,0.7-0.5,1-0.7c-0.3-0.3-0.6-0.6-1-0.9c-0.1-0.1-0.3,0-0.4,0c-6.2,0-12.4,0-18.5,0c-0.3,0-0.6,0-0.8,0.1
		c-0.2,0.1-0.5,0.5-0.5,0.7c0,0.2,0.2,0.6,0.5,0.7c0.3,0.1,0.6,0.1,0.9,0.1C32.9,24.2,36,24.2,39,24.2z M38.9,32.4
		C38.9,32.4,38.9,32.5,38.9,32.4c-3.1,0.1-6.2,0.1-9.3,0c-0.6,0-1.2,0.1-1.2,0.8c0,0.3,0.6,0.7,1,0.7c1.9,0.1,3.8,0.1,5.7,0.1
		c4.2,0,8.5,0.1,12.7,0.1c0.7,0,1.8,0.4,1.8-0.8c0-1.2-1.2-0.9-1.9-0.9C44.8,32.4,41.9,32.4,38.9,32.4z M39,43.9c2,0,4,0,6,0
		c1.3,0,2.5,0,3.8,0c0.3,0,0.6-0.5,0.9-0.7c-0.3-0.3-0.6-0.6-0.9-0.8c-0.1-0.1-0.4,0-0.6,0c-6.1,0-12.2,0-18.3,0
		c-0.2,0-0.5-0.1-0.7,0c-0.3,0.2-0.7,0.5-0.7,0.8c0,0.3,0.4,0.6,0.7,0.8c0.2,0.1,0.5,0,0.7,0C32.9,43.9,36,43.9,39,43.9z M21.5,35.9
		c2-1.9,3.7-3.7,5.5-5.4c0.5-0.4,0.8-0.9,0.3-1.4c-0.6-0.6-1.1-0.2-1.5,0.3c-1.3,1.4-2.5,2.8-3.8,4.3c-0.9-0.8-1.4-1.4-2.1-1.8
		c-0.3-0.2-0.9-0.1-1.3-0.2c0,0.4-0.1,0.9,0.1,1.2C19.7,34,20.6,34.9,21.5,35.9z M21.4,26.2c0.2,0,0.4-0.1,0.6-0.1
		c0.6-0.7,1.2-1.5,1.8-2.2c1.1-1.1,2.2-2.2,3.4-3.3c0.4-0.4,0.7-0.9,0.2-1.4c-0.5-0.5-1-0.2-1.4,0.2c-0.2,0.2-0.5,0.4-0.7,0.7
		c-1.1,1.2-2.3,2.5-3.4,3.7c-0.8-0.8-1.4-1.4-2-1.9c-0.3-0.2-0.8,0-1.2-0.1c0,0.4,0,0.9,0.2,1.2C19.6,24.1,20.5,25.1,21.4,26.2z
		 M22,45.9c1.8-2,3.6-3.9,5.3-5.8c0.2-0.2,0.2-0.9,0.1-1.1c-0.2-0.2-0.7-0.2-1.1-0.2c-0.2,0-0.4,0.4-0.6,0.6c-1.3,1.3-2.6,2.6-3.9,4
		c-0.6-0.6-1.2-1.1-1.7-1.6c-0.4-0.4-0.8-0.7-1.4-0.2c-0.5,0.5-0.2,1,0.2,1.4C19.8,43.8,20.7,44.7,22,45.9z M21.9,53.4
		c-0.8-0.8-1.3-1.4-2-1.8c-0.3-0.2-0.8,0-1.2-0.1c0,0.4-0.1,1,0.1,1.2c0.9,1,1.9,1.9,3.1,2.9c1.7-1.8,3.4-3.5,5.1-5.3
		c0.4-0.4,1-0.9,0.4-1.5c-0.6-0.6-1.1-0.1-1.5,0.3C24.6,50.5,23.3,51.9,21.9,53.4z M33.5,53.8c1.3,0,2.5,0,3.8,0
		c0.6,0,1.1,0,1.1-0.8c0-0.7-0.5-0.8-1.1-0.8c-2.6,0-5.2,0-7.8,0c-0.4,0-0.7,0.5-1,0.7c0.3,0.3,0.7,0.8,1,0.8
		C30.8,53.9,32.1,53.8,33.5,53.8z"/>
	<path class="st0" d="M40.1,64.4c-0.3,0-0.6,0-0.9,0c-7.8,0-15.5,0-23.3,0c-2.9,0-4.6-1.7-4.6-4.6c0-15.5,0-31,0-46.5
		c0-3,1.7-4.7,4.7-4.7c2.2,0,4.4,0,6.8,0c0,0.9,0,1.7,0,2.5c0,1.4,0.9,2.3,2.3,2.3c5.8,0,11.5,0,17.3,0c1.4,0,2.3-0.9,2.3-2.3
		c0-0.8,0-1.5,0-2.4c0.3,0,0.5-0.1,0.7-0.1c2.1,0,4.3,0,6.4,0c2.6,0,4.3,1.8,4.3,4.3c0,7.6,0,15.1,0,22.7c0,3.8,0,7.7,0,11.5
		c0,0.3,0,0.7,0,1c-1.5-0.4-2-1.3-2-2.8c0.1-9,0-18.1,0-27.1c0-2.3-0.9-3.2-3.2-3.2c-11.6,0-23.1,0-34.7,0c-2.1,0-3,0.9-3,3
		c0,13.8,0,27.6,0,41.4c0,2.1,0.9,3,2.9,3c6.9,0,13.8,0,20.7,0C38.4,62.4,39.6,62.5,40.1,64.4z"/>
	<path class="st0" d="M49.2,67.5c-5.5,0-10-4.6-10-10.1c0-5.7,4.5-10.1,10.2-10c5.6,0.1,10,4.6,9.9,10.2
		C59.3,63.1,54.7,67.6,49.2,67.5z M47.9,59c-1-0.9-1.7-1.6-2.4-2.3c-0.5-0.5-1.1-0.5-1.6,0c-0.5,0.5-0.4,1,0.1,1.5
		c1.2,1.2,2.4,2.3,3.9,3.7c0.7-0.8,1.4-1.7,2.1-2.4c1.5-1.5,3-3,4.5-4.4c0.5-0.5,0.6-1.1,0.1-1.6c-0.5-0.5-1.1-0.4-1.6,0.1
		c-0.2,0.2-0.5,0.4-0.7,0.7C50.9,55.8,49.4,57.4,47.9,59z"/>
	<path class="st0" d="M33.7,12.5c-2.8,0-5.5,0-8.3,0c-1.4,0-1.7-0.3-1.7-1.7c0-0.9,0-1.8,0-2.7c0-1,0.5-1.4,1.4-1.4
		c0.8,0,1.6-0.1,2.4,0c1.3,0.1,2.1-0.5,2.8-1.6c0.6-0.8,1.4-1.6,2.3-2c1.5-0.7,3.1,0,4,1.6c0.9,1.6,2.1,2.1,3.9,2
		c3.5-0.2,3.1,0,3.1,3c0,2.8,0,2.8-2.8,2.8C38.5,12.5,36.1,12.5,33.7,12.5z M33.6,6.7c1.6,0,1.7,0,1.6-0.6c0-0.7-0.7-1.4-1.5-1.4
		c-0.8,0-1.6,0.7-1.5,1.4C32.3,7.1,33.2,6.4,33.6,6.7z"/>
	<path class="st0" d="M39,24.2c-3.1,0-6.1,0-9.2,0c-0.3,0-0.7,0-0.9-0.1c-0.2-0.1-0.5-0.5-0.5-0.7c0-0.2,0.2-0.6,0.5-0.7
		c0.2-0.1,0.5-0.1,0.8-0.1c6.2,0,12.4,0,18.5,0c0.1,0,0.3-0.1,0.4,0c0.3,0.3,0.7,0.6,1,0.9c-0.3,0.3-0.6,0.7-1,0.7
		c-0.9,0.1-1.9,0-2.8,0C43.6,24.2,41.3,24.2,39,24.2z"/>
	<path class="st0" d="M38.9,32.4c2.9,0,5.9,0,8.8,0c0.7,0,1.9-0.3,1.9,0.9c0,1.2-1.1,0.8-1.8,0.8c-4.2,0-8.5,0-12.7-0.1
		c-1.9,0-3.8,0-5.7-0.1c-0.4,0-1-0.4-1-0.7c0-0.7,0.5-0.8,1.2-0.8C32.7,32.5,35.8,32.5,38.9,32.4C38.9,32.5,38.9,32.4,38.9,32.4z"/>
	<path class="st0" d="M39,43.9c-3.1,0-6.1,0-9.2,0c-0.2,0-0.5,0.1-0.7,0c-0.3-0.2-0.7-0.5-0.7-0.8c0-0.3,0.4-0.6,0.7-0.8
		c0.2-0.1,0.5,0,0.7,0c6.1,0,12.2,0,18.3,0c0.2,0,0.5-0.1,0.6,0c0.3,0.2,0.6,0.5,0.9,0.8c-0.3,0.2-0.6,0.7-0.9,0.7
		c-1.3,0.1-2.5,0-3.8,0C43,43.9,41,43.9,39,43.9z"/>
	<path class="st0" d="M21.5,35.9c-0.9-1-1.9-1.9-2.7-3c-0.2-0.3-0.1-0.8-0.1-1.2c0.4,0,1-0.1,1.3,0.2c0.6,0.4,1.1,1,2.1,1.8
		c1.3-1.5,2.6-2.9,3.8-4.3c0.4-0.5,1-0.9,1.5-0.3c0.5,0.5,0.1,1-0.3,1.4C25.2,32.2,23.5,34,21.5,35.9z"/>
	<path class="st0" d="M21.4,26.2c-0.9-1-1.8-2-2.6-3.1c-0.2-0.3-0.1-0.8-0.2-1.2c0.4,0,0.9-0.1,1.2,0.1c0.7,0.5,1.2,1.1,2,1.9
		c1.2-1.3,2.3-2.5,3.4-3.7c0.2-0.2,0.4-0.5,0.7-0.7c0.4-0.4,0.9-0.7,1.4-0.2c0.5,0.5,0.2,1-0.2,1.4c-1.1,1.1-2.3,2.2-3.4,3.3
		c-0.7,0.7-1.2,1.4-1.8,2.2C21.8,26.1,21.6,26.1,21.4,26.2z"/>
	<path class="st0" d="M22,45.9c-1.3-1.2-2.2-2.1-3.1-3c-0.4-0.4-0.7-0.9-0.2-1.4c0.5-0.5,0.9-0.2,1.4,0.2c0.5,0.5,1.1,1,1.7,1.6
		c1.3-1.3,2.6-2.7,3.9-4c0.2-0.2,0.4-0.5,0.6-0.6c0.4-0.1,0.9-0.1,1.1,0.2c0.2,0.2,0.1,0.9-0.1,1.1C25.6,42.1,23.9,44,22,45.9z"/>
	<path class="st0" d="M21.9,53.4c1.4-1.5,2.7-2.8,4-4.2c0.4-0.5,0.9-0.9,1.5-0.3c0.6,0.6,0,1.1-0.4,1.5c-1.7,1.7-3.4,3.5-5.1,5.3
		c-1.1-1.1-2.1-1.9-3.1-2.9c-0.2-0.2-0.1-0.8-0.1-1.2c0.4,0,0.9-0.1,1.2,0.1C20.5,52,21.1,52.6,21.9,53.4z"/>
	<path class="st0" d="M33.5,53.8c-1.3,0-2.7,0.1-4,0c-0.4,0-0.7-0.5-1-0.8c0.3-0.3,0.7-0.7,1-0.7c2.6-0.1,5.2,0,7.8,0
		c0.6,0,1.1,0.1,1.1,0.8c0,0.8-0.6,0.8-1.1,0.8C36,53.8,34.7,53.8,33.5,53.8z"/>
</g>
</svg>
