<?xml version="1.0" encoding="utf-8"?>
<!-- Generator: Adobe Illustrator 24.1.0, SVG Export Plug-In . SVG Version: 6.00 Build 0)  -->
<svg version="1.1" id="Layer_1" xmlns="http://www.w3.org/2000/svg" xmlns:xlink="http://www.w3.org/1999/xlink" x="0px" y="0px"
	 viewBox="0 0 199.5 42.3" style="enable-background:new 0 0 199.5 42.3;" xml:space="preserve">
<style type="text/css">
	.st0{fill:#172C36;}
	.st1{fill:url(#SVGID_1_);}
	.st2{fill:url(#SVGID_2_);}
	.st3{fill:url(#SVGID_3_);}
	.st4{fill:url(#SVGID_4_);}
	.st5{fill:url(#SVGID_5_);}
	.st6{fill:url(#SVGID_6_);}
	.st7{fill:url(#SVGID_7_);}
	.st8{fill:url(#SVGID_8_);}
	.st9{fill:url(#SVGID_9_);}
</style>
<g>
	<path class="st0" d="M50.5,33.7l-1.4,7h-5l6.2-32.5h6.9l6.6,32.5h-5.1l-1.4-7C57.4,33.7,50.5,33.7,50.5,33.7z M53.9,14.4L51.3,29
		h5.3L53.9,14.4z"/>
	<path class="st0" d="M75.3,40.7h-5V12.9H64V8.2h17.7v4.6h-6.3V40.7z"/>
	<path class="st0" d="M99.9,12.9h-9.7v8.6h7.1v4.6h-7.1v10h9.7v4.6H85.1V8.2h14.7V12.9z"/>
	<path class="st0" d="M121.4,40.7h-4.5l-8.7-21.6v21.6h-4.8V8.2h5.1l8.2,20.3V8.2h4.8C121.4,8.2,121.4,40.7,121.4,40.7z"/>
	<path class="st0" d="M138.5,18.7v-0.7c0-3.7-1.4-5.7-3.9-5.7c-1.4,0-2.5,0.6-2.9,1.6c-0.7,1-0.8,2-0.8,4.6v10.9
		c0,2.5,0.1,3.7,0.6,4.9c0.5,1.2,1.8,2.2,3.2,2.2c1.8,0,3.1-1,3.6-3.2c0.2-0.8,0.2-1.6,0.3-4h5.1v1.1c0,7-3.1,10.8-8.9,10.8
		c-3.3,0-5.9-1.2-7.2-3.6c-1.2-2-1.6-3.9-1.6-8.7v-9.2c0-5.2,0.3-7,1.9-9.1c1.4-1.9,3.9-3.1,6.9-3.1c5.5,0,8.8,3.7,8.8,10.1v1
		C143.6,18.7,138.5,18.7,138.5,18.7z"/>
	<path class="st0" d="M153,40.7h-5V8.2h5V40.7z"/>
	<path class="st0" d="M175.4,30.4c0,3.6-0.6,5.9-1.8,7.7c-1.5,2-3.9,3.2-7,3.2s-5.5-1-7-3.2c-1.4-1.8-1.8-4.1-1.8-7.7V18.5
		c0-3.6,0.6-5.9,1.8-7.7c1.5-2,3.9-3.2,7-3.2s5.5,1,7,3.2c1.4,1.8,1.8,4.1,1.8,7.7V30.4z M162.6,30.3c0,2.6,0.1,3.5,0.7,4.4
		c0.6,1,1.8,1.7,3.2,1.7s2.6-0.7,3.2-1.7s0.7-1.8,0.7-4.4V18.6c0-2.6-0.1-3.4-0.7-4.4s-1.8-1.8-3.2-1.8s-2.6,0.7-3.2,1.8
		c-0.5,1-0.7,1.8-0.7,4.4V30.3z M167.1,1.3h4.8l-3.5,4.3H165L167.1,1.3z"/>
	<path class="st0" d="M198,40.7h-4.5l-8.7-21.6v21.6H180V8.2h5.1l8.2,20.3V8.2h4.8V40.7z"/>
	
		<linearGradient id="SVGID_1_" gradientUnits="userSpaceOnUse" x1="-13.8525" y1="30.2444" x2="60.4607" y2="-16.4335" gradientTransform="matrix(1 0 0 -1 0 39)">
		<stop  offset="6.308655e-02" style="stop-color:#F6921E"/>
		<stop  offset="0.5171" style="stop-color:#F05A28"/>
		<stop  offset="1" style="stop-color:#EC1A39"/>
	</linearGradient>
	<path class="st1" d="M14.1,38.1c0,0.9,0,1.8,0,2.7l0,0h5.4c0.9,0,1.8,0,2.7,0c0-0.9,0-1.8,0-2.7c0-2.3,0-4.5,0-6.8
		c-1.8,0-3.6,0-5.3,0c0-0.9,0-1.8,0-2.7c1.8,0,3.6,0,5.4,0c0-1.8,0-3.6,0-5.4c0.9,0,1.8,0,2.7,0c0,0.9,0,1.7,0,2.6
		c0.9,0,1.8,0,2.7,0c0-1.8,0-3.6,0-5.3c-2.7,0-5.4,0-8.2,0c0,1.8,0,3.6,0,5.4c-1.8,0-3.6,0-5.4,0c0,2.7,0,5.4,0,8.2
		c1.8,0,3.6,0,5.4,0c0,1.4,0,2.7,0,4.1h-2.8C16.8,38.1,14.1,38.1,14.1,38.1z"/>
	
		<linearGradient id="SVGID_2_" gradientUnits="userSpaceOnUse" x1="-14.3949" y1="29.3808" x2="59.9183" y2="-17.2971" gradientTransform="matrix(1 0 0 -1 0 39)">
		<stop  offset="6.308655e-02" style="stop-color:#F6921E"/>
		<stop  offset="0.5171" style="stop-color:#F05A28"/>
		<stop  offset="1" style="stop-color:#EC1A39"/>
	</linearGradient>
	<path class="st2" d="M31.8,38c-1.4,0-2.7,0-4.1,0c0-1.4,0-2.7,0-4.1c-0.9,0-1.8,0-2.7,0c0,2.3,0,4.5,0,6.8c3.2,0,6.3,0,9.4,0
		c0-2.3,0-4.5,0-6.8c-0.9,0-1.8,0-2.7,0C31.8,35.4,31.8,36.7,31.8,38z"/>
	
		<linearGradient id="SVGID_3_" gradientUnits="userSpaceOnUse" x1="-15.6224" y1="27.4268" x2="58.6908" y2="-19.2512" gradientTransform="matrix(1 0 0 -1 0 39)">
		<stop  offset="6.308655e-02" style="stop-color:#F6921E"/>
		<stop  offset="0.5171" style="stop-color:#F05A28"/>
		<stop  offset="1" style="stop-color:#EC1A39"/>
	</linearGradient>
	<path class="st3" d="M7.3,28.6c1.4,0,2.7,0,4,0c0-0.9,0-1.8,0-2.7c-1.4,0-2.7,0-4,0C7.3,26.8,7.3,27.7,7.3,28.6z"/>
	
		<linearGradient id="SVGID_4_" gradientUnits="userSpaceOnUse" x1="-13.3478" y1="31.0479" x2="60.9654" y2="-15.6301" gradientTransform="matrix(1 0 0 -1 0 39)">
		<stop  offset="6.308655e-02" style="stop-color:#F6921E"/>
		<stop  offset="0.5171" style="stop-color:#F05A28"/>
		<stop  offset="1" style="stop-color:#EC1A39"/>
	</linearGradient>
	<path class="st4" d="M14.1,15v5.4H1.9v4.1c-0.5,0.6-0.8,1.4-0.8,2.4c0,1.7,1,3.2,2.3,3.2s2.3-1.4,2.3-3.2c0-1-0.3-1.9-1-2.5v-1.2
		h12.2V15C16.8,15,14.1,15,14.1,15z"/>
	
		<linearGradient id="SVGID_5_" gradientUnits="userSpaceOnUse" x1="-9.9399" y1="36.4553" x2="64.3733" y2="-10.2227" gradientTransform="matrix(1 0 0 -1 0 39)">
		<stop  offset="6.308655e-02" style="stop-color:#F6921E"/>
		<stop  offset="0.5171" style="stop-color:#F05A28"/>
		<stop  offset="1" style="stop-color:#EC1A39"/>
	</linearGradient>
	<path class="st5" d="M1.9,8.2c0,3.2,0,6.3,0,9.5c3.2,0,6.3,0,9.5,0c0-3.2,0-6.3,0-9.5C8.2,8.2,5.1,8.2,1.9,8.2z M8.7,15
		c-1.4,0-2.7,0-4.1,0c0-1.4,0-2.7,0-4.1c1.4,0,2.7,0,4.1,0C8.7,12.3,8.7,13.5,8.7,15z"/>
	
		<linearGradient id="SVGID_6_" gradientUnits="userSpaceOnUse" x1="-3.4023" y1="46.8815" x2="70.9109" y2="0.2035" gradientTransform="matrix(1 0 0 -1 0 39)">
		<stop  offset="6.308655e-02" style="stop-color:#F6921E"/>
		<stop  offset="0.5171" style="stop-color:#F05A28"/>
		<stop  offset="1" style="stop-color:#EC1A39"/>
	</linearGradient>
	<path class="st6" d="M25,8.2c0,3.2,0,6.3,0,9.4c3.2,0,6.3,0,9.4,0c0-3.2,0-6.3,0-9.4C31.3,8.2,28.2,8.2,25,8.2z M32.5,15.6H27v-1.4
		h5.4V15.6z M32.5,13.6H27v-1.4h5.4V13.6z M32.5,11.6H27v-1.4h5.4V11.6z"/>
	
		<linearGradient id="SVGID_7_" gradientUnits="userSpaceOnUse" x1="-20.2523" y1="20.0555" x2="54.0607" y2="-26.6225" gradientTransform="matrix(1 0 0 -1 0 39)">
		<stop  offset="6.308655e-02" style="stop-color:#F6921E"/>
		<stop  offset="0.5171" style="stop-color:#F05A28"/>
		<stop  offset="1" style="stop-color:#EC1A39"/>
	</linearGradient>
	<path class="st7" d="M12.4,33.1h-1.4v-1.6H1.7v6.8c0,1.5,1.1,2.6,2.6,2.6h4.2c1.5,0,2.6-1.1,2.6-2.6v-0.5h1.4c0,0,0.6-0.1,0.6-0.9
		v-3.2C13,33.2,12.5,33.1,12.4,33.1z M7.7,38H5.1c-0.5,0-0.7-0.3-0.7-0.7V34h4.1v3.3C8.3,37.7,8.1,38,7.7,38z"/>
	
		<linearGradient id="SVGID_8_" gradientUnits="userSpaceOnUse" x1="-9.1759" y1="37.6898" x2="65.1373" y2="-8.9882" gradientTransform="matrix(1 0 0 -1 0 39)">
		<stop  offset="6.308655e-02" style="stop-color:#F6921E"/>
		<stop  offset="0.5171" style="stop-color:#F05A28"/>
		<stop  offset="1" style="stop-color:#EC1A39"/>
	</linearGradient>
	<path class="st8" d="M34.5,20.2h-0.2h-0.5v4.5h-0.5v-4.5h-0.6v4.5h-0.5v-4.5h-0.6v4.5h-0.5l0,0v-4.5l0,0H31h-0.3v4.5v2
		c0,0.6,0.5,0.6,0.6,0.6h0.1l0,0v1.2H25v2.7h9.4V20.2H34.5z"/>
	
		<linearGradient id="SVGID_9_" gradientUnits="userSpaceOnUse" x1="-5.6985" y1="43.2257" x2="68.6145" y2="-3.4522" gradientTransform="matrix(1 0 0 -1 0 39)">
		<stop  offset="6.308655e-02" style="stop-color:#F6921E"/>
		<stop  offset="0.5171" style="stop-color:#F05A28"/>
		<stop  offset="1" style="stop-color:#EC1A39"/>
	</linearGradient>
	<path class="st9" d="M14.1,8.2v2.7h5.4l0,0h1c0,0.1,0,0.1-0.1,0.2c-0.1,0.1-0.2,0.3-0.3,0.5c-1,2.2-0.6,4,0,5.2
		c0.2,0.6,0.8,0.9,1.4,0.9c0.5,0,0.8-0.3,0.8-0.8V11V9.1V8.2H14.1z"/>
</g>
</svg>
