<svg xmlns="http://www.w3.org/2000/svg" width="68.89" height="69.303" viewBox="0 0 68.89 69.303">
  <g id="Group_125" data-name="Group 125" transform="translate(-352 -514.714)">
    <g id="noun_focus_1238853" transform="translate(345.747 508.722)">
      <path id="Path_6" data-name="Path 6" d="M44.018,55.137h0a3.543,3.543,0,1,1-5.023-5h0L39,50.133l0,0,7.008-7.044a11.038,11.038,0,1,0,5.081,4.94Z" transform="translate(-5.103 -7.658)" fill="#f25e00"/>
      <path id="Path_7" data-name="Path 7" d="M82.881,15.626,75.613,14.9l1.7-1.713a1.181,1.181,0,1,0-1.678-1.662L73.97,13.2l-.721-7.211L59.674,19.569v8.059L42.993,44.46a1.181,1.181,0,1,0,1.678,1.662L61.441,29.2h7.868Z" transform="translate(-7.739)" fill="#f25e00"/>
      <g id="Group_93" data-name="Group 93" transform="translate(6.253 15.454)">
        <path id="Path_8" data-name="Path 8" d="M62.548,34.117h-7.8l-1.914,1.924a20.47,20.47,0,1,1-5.051-4.97l1.788-1.8v-8.1a29.921,29.921,0,1,0,13.085,12.83Z" transform="translate(-6.253 -18.009)" fill="#f25e00"/>
      </g>
    </g>
  </g>
</svg>
