<svg xmlns="http://www.w3.org/2000/svg" width="87.534" height="74.821" viewBox="0 0 87.534 74.821">
  <g id="noun_Profit_201055" transform="translate(-10.013 -15.82)">
    <path id="Path_12" data-name="Path 12" d="M45.586,33.063l16.988,3.6,23.91-14.7,1.884,3.065,4.987-9.215-10.472.288,1.884,3.067L61.972,33.186l-16.988-3.6L13.35,49.03l1.718,2.8ZM40.135,63.938V68.5c0,2.364,5.834,5.013,13.643,5.013S67.423,70.86,67.423,68.5V63.938c-2.781,2.08-7.738,3.416-13.645,3.416S42.916,66.019,40.135,63.938Zm0,17.13v4.555c0,2.371,5.834,5.017,13.643,5.017s13.645-2.647,13.645-5.017V81.068c-2.781,2.082-7.738,3.416-13.645,3.416S42.916,83.15,40.135,81.068ZM70.258,42.8c0,2.37,5.834,5.017,13.643,5.017S97.547,45.168,97.547,42.8,91.711,37.782,83.9,37.782,70.258,40.432,70.258,42.8ZM10.013,81.07v4.558c0,2.364,5.834,5.013,13.643,5.013S37.3,87.992,37.3,85.628V81.07c-2.781,2.08-7.738,3.416-13.645,3.416S12.794,83.15,10.013,81.07Zm13.643-9.026c-7.809,0-13.643,2.649-13.643,5.015s5.834,5.017,13.643,5.017S37.3,79.43,37.3,77.059,31.464,72.044,23.656,72.044Zm16.479.458v4.558c0,2.369,5.834,5.017,13.643,5.017s13.645-2.649,13.645-5.017V72.5c-2.781,2.082-7.738,3.418-13.645,3.418S42.916,74.584,40.135,72.5ZM70.258,55.372V59.93c0,2.369,5.834,5.017,13.643,5.017S97.547,62.3,97.547,59.93V55.372c-2.781,2.082-7.738,3.418-13.645,3.418S73.039,57.454,70.258,55.372Zm0,8.566v4.555c0,2.371,5.834,5.017,13.643,5.017s13.645-2.647,13.645-5.017V63.938c-2.781,2.082-7.738,3.416-13.645,3.416S73.039,66.021,70.258,63.938Zm-16.48-9.025c-7.809,0-13.643,2.649-13.643,5.015s5.834,5.017,13.643,5.017S67.423,62.3,67.423,59.928,61.587,54.913,53.778,54.913Zm16.48-8.1v4.558c0,2.365,5.834,5.014,13.643,5.014s13.645-2.648,13.645-5.014V46.808c-2.781,2.081-7.738,3.417-13.645,3.417S73.039,48.89,70.258,46.808Zm0,25.694v4.558c0,2.366,5.834,5.017,13.643,5.017s13.645-2.651,13.645-5.017V72.5c-2.781,2.08-7.738,3.416-13.645,3.416S73.039,74.582,70.258,72.5Zm0,8.565v4.56c0,2.366,5.834,5.015,13.643,5.015s13.645-2.649,13.645-5.015v-4.56c-2.781,2.084-7.738,3.418-13.645,3.418S73.039,83.15,70.258,81.066Z" transform="translate(0 0)" fill="#f26b16"/>
  </g>
</svg>
