<svg xmlns="http://www.w3.org/2000/svg" width="75.796" height="78.506" viewBox="0 0 75.796 78.506">
  <g id="Group_127" data-name="Group 127" transform="translate(-1121 -2553.759)">
    <g id="Group_108" data-name="Group 108" transform="translate(1121 2553.759)">
      <path id="Path_35" data-name="Path 35" d="M831.7,411.965c.26.8.529,3.421.066,4.293L814,423.132a7.852,7.852,0,0,1-.282,1.617c-.457,2.333-.9,5.731-1.214,8.946a13.68,13.68,0,0,1-1-5.2,13.88,13.88,0,0,1,.625-4.234,3.188,3.188,0,0,0-5.97-2.238,20.593,20.593,0,0,0,.489,14.2,20.768,20.768,0,0,0,5.373,7.473l.184,29.59a3.985,3.985,0,0,1-3.96,4.01h-.026a3.985,3.985,0,0,1-3.984-3.96l-.173-28.1c-1.561-.706-2.879-2.135-3.429-4.966a35.225,35.225,0,0,1,1.811-17.7c1.605-4.668,5.55-6.146,8.272-5.467a3.65,3.65,0,0,1,1.828,1.126l18.55-7.179.028.035A2.987,2.987,0,0,1,831.7,411.965Z" transform="translate(-800.247 -398.788)" fill="#f25e00"/>
      <path id="Path_36" data-name="Path 36" d="M788.672,411.766a2.958,2.958,0,0,1,.575-.88l.1-.13a2.547,2.547,0,0,1-.672,4.368l-.283.11A10.772,10.772,0,0,1,788.672,411.766Z" transform="translate(-754.751 -398.59)" fill="#f25e00"/>
      <path id="Path_37" data-name="Path 37" d="M676.68,388.655a7.171,7.171,0,1,1,8.61,5.357A7.17,7.17,0,0,1,676.68,388.655Z" transform="translate(-619.619 -377.54)" fill="#f25e00"/>
      <path id="Path_38" data-name="Path 38" d="M673.6,435.169a35.221,35.221,0,0,1,1.811,17.7c-.55,2.831-1.867,4.259-3.428,4.966l-.175,28.1a3.984,3.984,0,0,1-3.984,3.96H667.8a3.985,3.985,0,0,1-3.96-4.01l.187-30.308a3.994,3.994,0,0,1,.049-.57,12.8,12.8,0,0,1-.062-1.315,116.411,116.411,0,0,0-1.688-16.342,7.82,7.82,0,0,1-.2-.9l3.811,1.475a3.188,3.188,0,0,0,2.3-5.946l-4.217-1.632a3.5,3.5,0,0,1,1.309-.643C668.054,429.024,672,430.5,673.6,435.169Z" transform="translate(-600.002 -411.39)" fill="#f25e00"/>
      <path id="Path_39" data-name="Path 39" d="M761.849,427.382a2.19,2.19,0,0,0,1.557,1.151c.2.068.385.272.339.361h-5.1c-.045-.09.136-.294.339-.361a2.189,2.189,0,0,0,1.558-1.151,2.088,2.088,0,0,0,.222-.567l.992.384A1.539,1.539,0,0,0,761.849,427.382Z" transform="translate(-718.723 -409.529)" fill="#f25e00"/>
      <path id="Path_40" data-name="Path 40" d="M760.68,392.226a3.188,3.188,0,0,0-1.875.617c-.246-.317-.549-.72-.922-1.27-1.055-1.557-.012-5.243.209-5.969a.3.3,0,0,1,.3-.291h3.943a.3.3,0,0,1,.3.291c.22.725,1.264,4.412.209,5.969-.271.4-.5.72-.705.987l-.309-.12A3.179,3.179,0,0,0,760.68,392.226Z" transform="translate(-717.89 -381.257)" fill="#f25e00"/>
      <path id="Path_41" data-name="Path 41" d="M710.67,421.873a2.547,2.547,0,0,1-3.3,1.458l-24.3-9.4a2.55,2.55,0,0,1,1.841-4.757l24.3,9.4A2.55,2.55,0,0,1,710.67,421.873Z" transform="translate(-641.203 -397.392)" fill="#f25e00"/>
      <path id="Path_42" data-name="Path 42" d="M846.078,394.013a7.171,7.171,0,1,1,8.61-5.357A7.171,7.171,0,0,1,846.078,394.013Z" transform="translate(-835.953 -377.54)" fill="#f25e00"/>
      <path id="Path_43" data-name="Path 43" d="M793.345,385.6c.221.725,1.264,4.412.209,5.969-1.15,1.7-1.635,2-1.85,2.662-.242.738-.655,3.77.023,4.876a2.189,2.189,0,0,0,1.557,1.151c.2.068.384.272.339.362h-5.1c-.046-.09.135-.294.339-.362a2.189,2.189,0,0,0,1.558-1.151c.677-1.106.263-4.138.022-4.876-.216-.66-.7-.967-1.851-2.662-1.055-1.557-.011-5.243.209-5.969a.3.3,0,0,1,.3-.291h3.943A.3.3,0,0,1,793.345,385.6Z" transform="translate(-758.388 -381.257)" fill="#f25e00"/>
      <path id="Path_44" data-name="Path 44" d="M847.469,456.38A19.434,19.434,0,0,1,846,448.9a19.034,19.034,0,0,1,.99-6.248,2.55,2.55,0,0,1,4.778,1.784l0,.01a14.537,14.537,0,0,0-.663,4.453,14.325,14.325,0,0,0,1.079,5.522,15.4,15.4,0,0,0,4.56,5.971,2.551,2.551,0,0,1-3.25,3.932A20.517,20.517,0,0,1,847.469,456.38Z" transform="translate(-840.482 -419.191)" fill="#f25e00"/>
      <path id="Path_45" data-name="Path 45" d="M751.641,377.419a2.029,2.029,0,0,1,1.875,1.02,2.458,2.458,0,0,1,.307,1,.32.32,0,0,1-.3.335H753.5a.32.32,0,0,1-.318-.3h0a1.55,1.55,0,0,0-1.545-1.415,2.927,2.927,0,0,0-.482.042.319.319,0,0,1-.1-.629A3.6,3.6,0,0,1,751.641,377.419Z" transform="translate(-706.289 -375.88)" fill="#f25e00"/>
      <path id="Path_46" data-name="Path 46" d="M746.477,372.884c.166-.014.325-.02.477-.02a3.432,3.432,0,0,1,3.062,1.538,3.836,3.836,0,0,1,.574,1.534.319.319,0,0,1-.285.35l-.033,0a.32.32,0,0,1-.317-.285h0a2.388,2.388,0,0,0-.082-.382,2.8,2.8,0,0,0-2.92-2.119c-.135,0-.274.005-.422.018a.319.319,0,0,1-.055-.635Z" transform="translate(-701.591 -372.777)" fill="#f25e00"/>
      <path id="Path_47" data-name="Path 47" d="M804.3,377.989h0a1.975,1.975,0,0,0-.25.062,2.109,2.109,0,0,0-1.582,1.7.318.318,0,0,1-.315.275l-.044,0a.319.319,0,0,1-.272-.359,2.559,2.559,0,0,1,1.293-1.9,3.355,3.355,0,0,1,1.072-.4.319.319,0,0,1,.1.63Z" transform="translate(-773.316 -375.836)" fill="#f25e00"/>
      <path id="Path_48" data-name="Path 48" d="M805.868,373.233h0s-.038,0-.126,0a3.2,3.2,0,0,0-1.589.427,3.025,3.025,0,0,0-1.375,2.464.318.318,0,0,1-.317.284l-.035,0a.319.319,0,0,1-.283-.351,3.67,3.67,0,0,1,1.68-2.941,3.817,3.817,0,0,1,1.918-.518c.109,0,.176.006.184.007a.319.319,0,0,1-.058.636Z" transform="translate(-775.054 -372.591)" fill="#f25e00"/>
    </g>
  </g>
</svg>
