<svg xmlns="http://www.w3.org/2000/svg" width="106.016" height="75.136" viewBox="0 0 106.016 75.136">
  <g id="Group_125" data-name="Group 125" transform="translate(-749 -2553.759)">
    <g id="Group_105" data-name="Group 105" transform="translate(749 2553.759)">
      <path id="Path_28" data-name="Path 28" d="M976.952,399.728c1.164-4.748-.1-20.06-.1-20.06h-1.662V394.98H973.64V379.668h-1.927V394.98h-1.682V379.668H968.1V394.98h-1.552V379.668H964.89s-1.262,15.312-.1,20.06a9.9,9.9,0,0,0,4.353,6.41s-5.776,48.667,1.727,48.667,1.728-48.667,1.728-48.667A9.9,9.9,0,0,0,976.952,399.728Z" transform="translate(-871.43 -379.668)" fill="#f25e00"/>
      <path id="Path_29" data-name="Path 29" d="M662.836,393.929c0-6.962-2.358-10.611-4.74-12.522a7.9,7.9,0,0,0-9.783,0c-2.383,1.911-4.74,5.561-4.74,12.522,0,10.74,6.935,9.613,7.776,13.308-.545,4.64-5.009,47.585,1.816,47.585l.041,0,.041,0c6.824,0,2.361-42.946,1.815-47.585C655.9,403.543,662.836,404.669,662.836,393.929Z" transform="translate(-643.572 -379.699)" fill="#f25e00"/>
      <g id="Group_104" data-name="Group 104" transform="translate(23.234 1.219)">
        <path id="Path_30" data-name="Path 30" d="M743.843,416.126l.718,20.166h36.712l.718-20.158c6.772-.889,10.473-6.044,10.473-12.27,0-6.851-6.292-12.406-14.053-12.406a16.019,16.019,0,0,0-2.028.129c-1.961-4.491-7.249-7.709-13.466-7.709s-11.5,3.215-13.463,7.7a16.03,16.03,0,0,0-1.969-.122c-7.761,0-14.053,5.555-14.053,12.406C733.432,410.071,737.1,415.213,743.843,416.126Z" transform="translate(-730.646 -383.878)" fill="#f25e00"/>
        <path id="Path_31" data-name="Path 31" d="M788.4,582.5a6.233,6.233,0,0,0-.757-2.679,6.146,6.146,0,0,0-1.734-1.985,5.97,5.97,0,0,0-1.073-.63l-.277-.117-.009,0-.02-.008-.016-.006-.032-.012-.064-.023-.064-.023-.032-.012-.038-.012c-.1-.031-.2-.066-.3-.087l-.143-.036-.144-.029a4.667,4.667,0,0,0-3.725.857,4.745,4.745,0,0,0-.543.486,4.507,4.507,0,0,0-.39.472,4.266,4.266,0,0,0-.423.735c-.043.087-.067.158-.087.2l-.028.07.054.025a11.625,11.625,0,0,1,2.65-1.679,3.843,3.843,0,0,1,2.685.284,3.69,3.69,0,0,1,2.3,3.743c0,2.691-3.751,6.016-7.67,4.753,0,0-1.615-3.868-9.57-4.35,0,0-7.052-6.806-12.851-3.622-5.8-3.184-12.851,3.622-12.851,3.622-7.955.482-9.57,4.35-9.57,4.35-3.92,1.263-7.67-2.062-7.671-4.753a3.69,3.69,0,0,1,2.3-3.743,3.844,3.844,0,0,1,2.685-.284,11.619,11.619,0,0,1,2.65,1.679l.055-.025-.029-.07c-.02-.046-.044-.117-.087-.2a4.306,4.306,0,0,0-.423-.735,4.512,4.512,0,0,0-.39-.472,4.74,4.74,0,0,0-.543-.486,4.667,4.667,0,0,0-3.725-.857l-.143.029-.143.036c-.094.021-.2.056-.3.087L727.9,577l-.032.012-.064.023-.065.023-.032.012-.016.006-.02.008-.008,0-.277.117a5.977,5.977,0,0,0-1.073.63,6.15,6.15,0,0,0-1.734,1.985,6.233,6.233,0,0,0-.757,2.679,6.4,6.4,0,0,0,.088,1.43c.021.118.047.235.072.353s.058.23.094.35l.059.184.03.092.014.04.013.036.052.143.013.036.006.018,0,.009s.022.051.014.033l.034.08a7.9,7.9,0,0,0,1.47,2.306,8.082,8.082,0,0,0,2.045,1.607,7.9,7.9,0,0,0,2.216.819,8.063,8.063,0,0,0,1.052.144,8.4,8.4,0,0,0,.962.009s13.551,9.175,24.055-2.569c10.5,11.744,24.055,2.569,24.055,2.569a8.407,8.407,0,0,0,.962-.009,8.066,8.066,0,0,0,1.052-.144,7.9,7.9,0,0,0,2.215-.819,8.085,8.085,0,0,0,2.045-1.607,7.9,7.9,0,0,0,1.47-2.306l.034-.08.014-.033,0-.009.006-.018.013-.036.052-.143.013-.036.014-.04.03-.092.059-.184c.036-.12.063-.233.094-.35s.051-.235.072-.353A6.4,6.4,0,0,0,788.4,582.5Z" transform="translate(-723.81 -520.899)" fill="#f25e00"/>
      </g>
    </g>
  </g>
</svg>
