<svg xmlns="http://www.w3.org/2000/svg" width="145" height="23.928" viewBox="0 0 145 23.928">
  <g id="Group_122" data-name="Group 122" transform="translate(-478 -5490.92)">
    <path id="star-solid" d="M31.658.82,28.607,7.007,21.78,8a1.5,1.5,0,0,0-.827,2.551l4.939,4.813-1.168,6.8a1.494,1.494,0,0,0,2.168,1.575L33,20.53l6.107,3.21a1.5,1.5,0,0,0,2.168-1.575l-1.168-6.8,4.939-4.813A1.5,1.5,0,0,0,44.219,8l-6.827-1L34.341.82A1.5,1.5,0,0,0,31.658.82Z" transform="translate(457.5 5490.933)" fill="#f25e00"/>
    <path id="star-solid-2" data-name="star-solid" d="M31.658.82,28.607,7.007,21.78,8a1.5,1.5,0,0,0-.827,2.551l4.939,4.813-1.168,6.8a1.494,1.494,0,0,0,2.168,1.575L33,20.53l6.107,3.21a1.5,1.5,0,0,0,2.168-1.575l-1.168-6.8,4.939-4.813A1.5,1.5,0,0,0,44.219,8l-6.827-1L34.341.82A1.5,1.5,0,0,0,31.658.82Z" transform="translate(487.5 5490.933)" fill="#f25e00"/>
    <path id="star-solid-3" data-name="star-solid" d="M31.658.82,28.607,7.007,21.78,8a1.5,1.5,0,0,0-.827,2.551l4.939,4.813-1.168,6.8a1.494,1.494,0,0,0,2.168,1.575L33,20.53l6.107,3.21a1.5,1.5,0,0,0,2.168-1.575l-1.168-6.8,4.939-4.813A1.5,1.5,0,0,0,44.219,8l-6.827-1L34.341.82A1.5,1.5,0,0,0,31.658.82Z" transform="translate(517.5 5490.933)" fill="#f25e00"/>
    <path id="star-solid-4" data-name="star-solid" d="M31.658.82,28.607,7.007,21.78,8a1.5,1.5,0,0,0-.827,2.551l4.939,4.813-1.168,6.8a1.494,1.494,0,0,0,2.168,1.575L33,20.53l6.107,3.21a1.5,1.5,0,0,0,2.168-1.575l-1.168-6.8,4.939-4.813A1.5,1.5,0,0,0,44.219,8l-6.827-1L34.341.82A1.5,1.5,0,0,0,31.658.82Z" transform="translate(547.5 5490.933)" fill="#f25e00"/>
    <path id="star-solid-5" data-name="star-solid" d="M31.658.82,28.607,7.007,21.78,8a1.5,1.5,0,0,0-.827,2.551l4.939,4.813-1.168,6.8a1.494,1.494,0,0,0,2.168,1.575L33,20.53l6.107,3.21a1.5,1.5,0,0,0,2.168-1.575l-1.168-6.8,4.939-4.813A1.5,1.5,0,0,0,44.219,8l-6.827-1L34.341.82A1.5,1.5,0,0,0,31.658.82Z" transform="translate(577.5 5490.933)" fill="#f25e00"/>
  </g>
</svg>
