<svg xmlns="http://www.w3.org/2000/svg" width="77.351" height="78.173" viewBox="0 0 77.351 78.173">
  <g id="Group_126" data-name="Group 126" transform="translate(-940.95 -513.69)">
    <g id="Group_94" data-name="Group 94" transform="translate(1100.258 881.623)">
      <path id="Path_9" data-name="Path 9" d="M-96.213-335.9a29.3,29.3,0,0,1-2.729,12.543,1.743,1.743,0,0,0,.481,2.333c4.226,4.32,8.446,8.647,12.591,13.044a10.156,10.156,0,0,1,1.761,11.337,10.2,10.2,0,0,1-9.862,5.861,10.205,10.205,0,0,1-7-3.26c-4.122-4.28-8.272-8.532-12.372-12.832a1.572,1.572,0,0,0-2.063-.467,30.961,30.961,0,0,1-42.369-23.408c-3.1-17.1,9.186-33.815,26.4-35.909,17.639-2.146,32.858,9.7,34.991,27.261C-96.247-338.241-96.267-337.065-96.213-335.9Zm-30.806-26.288a26.227,26.227,0,0,0-26.4,26.242,26.185,26.185,0,0,0,26.123,26.2,26.193,26.193,0,0,0,26.412-26.379A26.3,26.3,0,0,0-127.019-362.187Zm17.072,52.445c.7.608,1.585,1.287,2.362,2.076,3.385,3.435,6.7,6.935,10.113,10.347a5.654,5.654,0,0,0,7.957.224,5.512,5.512,0,0,0,.039-7.919c-.689-.746-1.387-1.487-2.128-2.179-3.595-3.36-7.206-6.7-10.705-9.954Z" fill="#f25e00" stroke="#f25e00" stroke-width="2"/>
      <path id="Path_10" data-name="Path 10" d="M-106.985-313.85a22.365,22.365,0,0,1,15.2,6.556A53.458,53.458,0,0,1-86-300.276a3.1,3.1,0,0,1,.243,2.774c-3.853,6.2-8.823,11.17-16.109,13.11-7.153,1.9-13.651.152-19.174-4.567-2.7-2.309-4.84-5.283-7.187-8a2.374,2.374,0,0,1-.312-2.973c3.942-6.14,8.893-11.079,16.174-13.056A49.552,49.552,0,0,1-106.985-313.85Zm16.551,15.034c-1.608-1.73-3.021-3.468-4.655-4.963-3.558-3.254-7.684-5.265-12.645-5.028-6.894.329-11.6,4.288-15.471,9.525a1.53,1.53,0,0,0,.182,1.415,43.894,43.894,0,0,0,3.88,4.265,17.164,17.164,0,0,0,11.122,5.015C-100.168-288.3-94.995-292.714-90.434-298.816Z" transform="translate(-20.39 -36.889)" fill="#f25e00"/>
      <path id="Path_11" data-name="Path 11" d="M-66.994-281.42a7.43,7.43,0,0,1-7.523,7.375,7.5,7.5,0,0,1-7.388-7.538,7.487,7.487,0,0,1,7.553-7.371A7.428,7.428,0,0,1-66.994-281.42Zm-7.517,2.6a2.648,2.648,0,0,0,2.782-2.6,2.632,2.632,0,0,0-2.623-2.757,2.6,2.6,0,0,0-2.762,2.606A2.583,2.583,0,0,0-74.51-278.82Z" transform="translate(-53.083 -54.198)" fill="#f25e00"/>
    </g>
  </g>
</svg>
